<?xml version="1.0" encoding="UTF-8" standalone="no"?>
<!DOCTYPE svg PUBLIC "-//W3C//DTD SVG 1.1//EN" "http://www.w3.org/Graphics/SVG/1.1/DTD/svg11.dtd">
<svg version="1.1" xmlns:xl="http://www.w3.org/1999/xlink" xmlns="http://www.w3.org/2000/svg" xmlns:dc="http://purl.org/dc/elements/1.1/" viewBox="1731 -72 632 682" width="632" height="682">
  <defs>
    <clipPath id="artboard_clip_path">
      <path d="M 1731 -72 L 2363 -72 L 2363 610 L 1731 610 Z"/>
    </clipPath>
    <marker orient="auto" overflow="visible" markerUnits="strokeWidth" id="StickArrow_Marker" stroke-linejoin="miter" stroke-miterlimit="10" viewBox="-1 -4 10 8" markerWidth="10" markerHeight="8" color="black">
      <g>
        <path d="M 8 0 L 0 0 M 0 -3 L 8 0 L 0 3" fill="none" stroke="currentColor" stroke-width="1"/>
      </g>
    </marker>
  </defs>
  <g id="Canvas_1" stroke-opacity="1" stroke="none" stroke-dasharray="none" fill="none" fill-opacity="1">
    <title>Canvas 1</title>
    <rect fill="white" x="1731" y="-72" width="632" height="682"/>
    <g id="Canvas_1_Layer_1" clip-path="url(#artboard_clip_path)">
      <title>Layer 1</title>
      <g id="Graphic_31">
        <rect x="1762.049" y="95.6243" width="103" height="494.8757" fill="white"/>
        <rect x="1762.049" y="95.6243" width="103" height="494.8757" stroke="black" stroke-linecap="round" stroke-linejoin="round" stroke-width="1"/>
        <text transform="translate(1767.049 333.83815)" fill="black">
          <tspan font-family="Helvetica Neue" font-size="16" fill="black" x="22.948" y="15" xml:space="preserve">next(v)</tspan>
        </text>
      </g>
      <g id="Graphic_32">
        <path d="M 1743.9952 -56.526145 L 1846.9952 -56.526145 L 1826.3952 -3.7747525 L 1764.5952 -3.7747525 Z" fill="white"/>
        <path d="M 1743.9952 -56.526145 L 1846.9952 -56.526145 L 1826.3952 -3.7747525 L 1764.5952 -3.7747525 Z" stroke="#003776" stroke-linecap="round" stroke-linejoin="round" stroke-width="1"/>
        <text transform="translate(1756.2052 -40.429476)" fill="black">
          <tspan font-family="Helvetica Neue" font-size="16" fill="black" x="13.789998" y="15" xml:space="preserve">set(k, v)</tspan>
        </text>
      </g>
      <g id="Graphic_33">
        <path d="M 1879.3238 -56.526145 L 2015.9723 -56.526145 L 1988.6426 -3.7747525 L 1906.6535 -3.7747525 Z" fill="white"/>
        <path d="M 1879.3238 -56.526145 L 2015.9723 -56.526145 L 1988.6426 -3.7747525 L 1906.6535 -3.7747525 Z" stroke="#003776" stroke-linecap="round" stroke-linejoin="round" stroke-width="1"/>
        <text transform="translate(1893.8892 -40.429476)" fill="black">
          <tspan font-family="Helvetica Neue" font-size="16" fill="black" x="12.619833" y="15" xml:space="preserve"> mutate(k, v)</tspan>
        </text>
      </g>
      <g id="Line_39">
        <path d="M 1795.4952 -3.2747525 L 1795.4952 46.62525 L 1813.549 46.62525 L 1813.549 85.7243" marker-end="url(#StickArrow_Marker)" stroke="black" stroke-linecap="round" stroke-linejoin="round" stroke-width="1"/>
      </g>
      <g id="Line_40">
        <path d="M 1947.648 -3.7747525 L 1947.648 46.12525 L 1813.549 46.12525 L 1813.549 85.7243" marker-end="url(#StickArrow_Marker)" stroke="black" stroke-linecap="round" stroke-linejoin="round" stroke-width="1"/>
      </g>
      <g id="Graphic_42">
        <rect x="1924.3243" y="95.6243" width="103" height="84" fill="white"/>
        <rect x="1924.3243" y="95.6243" width="103" height="84" stroke="black" stroke-linecap="round" stroke-linejoin="round" stroke-width="1"/>
        <text transform="translate(1929.3243 128.4003)" fill="black">
          <tspan font-family="Helvetica Neue" font-size="16" fill="black" x="13.172" y="15" xml:space="preserve">pre (filter)</tspan>
        </text>
      </g>
      <g id="Graphic_43">
        <rect x="1924.3243" y="204.15347" width="103" height="114.08586" fill="white"/>
        <rect x="1924.3243" y="204.15347" width="103" height="114.08586" stroke="black" stroke-linecap="round" stroke-linejoin="round" stroke-width="1"/>
        <text transform="translate(1929.3243 251.9724)" fill="black">
          <tspan font-family="Helvetica Neue" font-size="16" fill="black" x="18.796" y="15" xml:space="preserve">validate</tspan>
        </text>
      </g>
      <g id="Graphic_44">
        <rect x="2134.8827" y="203.07596" width="166.36154" height="44.4464" fill="white"/>
        <path d="M 2134.8827 203.07596 L 2301.2443 203.07596 L 2301.2443 247.52237 L 2134.8827 247.52237 Z M 2151.519 203.07596 L 2151.519 247.52237 M 2284.608 247.52237 L 2284.608 203.07596" stroke="#a5a5a5" stroke-linecap="round" stroke-linejoin="round" stroke-width="1"/>
        <text transform="translate(2156.519 216.07517)" fill="black">
          <tspan font-family="Helvetica Neue" font-size="16" fill="black" x="7.016617" y="15" xml:space="preserve">schema.parse()</tspan>
        </text>
      </g>
      <g id="Graphic_45">
        <rect x="2134.8827" y="272.71542" width="166.36154" height="44.4464" fill="white"/>
        <path d="M 2134.8827 272.71542 L 2301.2443 272.71542 L 2301.2443 317.16182 L 2134.8827 317.16182 Z M 2151.519 272.71542 L 2151.519 317.16182 M 2284.608 317.16182 L 2284.608 272.71542" stroke="#a5a5a5" stroke-linecap="round" stroke-linejoin="round" stroke-width="1"/>
        <text transform="translate(2156.519 285.71463)" fill="black">
          <tspan font-family="Helvetica Neue" font-size="16" fill="black" x="40.064617" y="15" xml:space="preserve">tests()</tspan>
        </text>
      </g>
      <g id="Line_46">
        <line x1="1865.19" y1="127.72277" x2="1914.5602" y2="135.9894" marker-end="url(#StickArrow_Marker)" stroke="black" stroke-linecap="round" stroke-linejoin="round" stroke-width="1"/>
      </g>
      <g id="Line_47">
        <line x1="1975.8243" y1="180.1243" x2="1975.8243" y2="194.25347" marker-end="url(#StickArrow_Marker)" stroke="black" stroke-linecap="round" stroke-linejoin="round" stroke-width="1"/>
      </g>
      <g id="Line_48">
        <line x1="2027.3243" y1="234.15842" x2="2125.0161" y2="226.11184" marker-end="url(#StickArrow_Marker)" stroke="black" stroke-linecap="round" stroke-linejoin="round" stroke-width="1"/>
      </g>
      <g id="Line_49">
        <line x1="2218.0635" y1="247.52237" x2="2218.0635" y2="262.81542" marker-end="url(#StickArrow_Marker)" stroke="black" stroke-linecap="round" stroke-linejoin="round" stroke-width="1"/>
      </g>
      <g id="Line_50">
        <line x1="2134.8827" y1="294.93862" x2="2036.7782" y2="289.83488" marker-end="url(#StickArrow_Marker)" stroke="black" stroke-linecap="round" stroke-linejoin="round" stroke-width="1"/>
      </g>
      <g id="Graphic_51">
        <path d="M 2268.3106 125.09584 C 2255.0687 125.09584 2244.311 135.03538 2244.311 147.31904 C 2244.311 159.60269 2255.0687 169.54224 2268.3106 169.54224 C 2281.5761 169.54224 2292.3102 159.60269 2292.3102 147.31904 C 2292.3102 135.03538 2281.5761 125.09584 2268.3106 125.09584 M 2281.3885 135.20917 C 2287.951 141.28588 2288.4664 150.74808 2283.1227 157.47593 L 2257.3654 133.60332 C 2264.6075 128.6551 2274.826 129.17602 2281.3885 135.20917 M 2255.2328 159.4289 C 2248.694 153.3522 2248.155 143.89 2253.4986 137.16215 L 2279.256 161.03475 C 2272.0138 165.98297 2261.7952 165.50561 2255.2328 159.4289 Z" fill="white"/>
        <path d="M 2268.3106 125.09584 C 2255.0687 125.09584 2244.311 135.03538 2244.311 147.31904 C 2244.311 159.60269 2255.0687 169.54224 2268.3106 169.54224 C 2281.5761 169.54224 2292.3102 159.60269 2292.3102 147.31904 C 2292.3102 135.03538 2281.5761 125.09584 2268.3106 125.09584 M 2281.3885 135.20917 C 2287.951 141.28588 2288.4664 150.74808 2283.1227 157.47593 L 2257.3654 133.60332 C 2264.6075 128.6551 2274.826 129.17602 2281.3885 135.20917 M 2255.2328 159.4289 C 2248.694 153.3522 2248.155 143.89 2253.4986 137.16215 L 2279.256 161.03475 C 2272.0138 165.98297 2261.7952 165.50561 2255.2328 159.4289 Z" stroke="#ea0000" stroke-opacity=".52782207" stroke-linecap="round" stroke-linejoin="round" stroke-width="1"/>
        <text transform="translate(2117.8382 138.09504)" fill="black">
          <tspan font-family="Helvetica Neue" font-size="16" fill="black" x="15916157e-19" y="15" xml:space="preserve">Throws Errors on failure</tspan>
        </text>
      </g>
      <g id="Line_52">
        <path d="M 2301.2443 225.29916 C 2305.2007 217.89217 2316.1627 213.03434 2313.1148 203.07596 C 2310.6567 195.04508 2299.086 183.69315 2289.4269 173.03852" marker-end="url(#StickArrow_Marker)" stroke="black" stroke-linecap="round" stroke-linejoin="round" stroke-width="1"/>
      </g>
      <g id="Line_53">
        <path d="M 2301.2443 294.93862 C 2309.9046 285.40558 2323.747 282.84115 2327.2277 266.33663 C 2330.7085 249.83212 2329.0232 213.09428 2322.1311 195.90164 C 2316.6363 182.19454 2304.537 176.47314 2293.7324 169.1882" marker-end="url(#StickArrow_Marker)" stroke="black" stroke-linecap="round" stroke-linejoin="round" stroke-width="1"/>
      </g>
      <g id="Graphic_54">
        <path d="M 1939.7743 490.35333 L 2011.8743 490.35333 C 2020.4027 490.35333 2027.3243 512.7862 2027.3243 540.42667 C 2027.3243 568.06715 2020.4027 590.5 2011.8743 590.5 L 1939.7743 590.5 C 1931.2459 590.5 1924.3243 568.06715 1924.3243 540.42667 C 1924.3243 512.7862 1931.2459 490.35333 1939.7743 490.35333 Z" fill="white"/>
        <path d="M 1939.7743 490.35333 L 2011.8743 490.35333 C 2020.4027 490.35333 2027.3243 512.7862 2027.3243 540.42667 C 2027.3243 568.06715 2020.4027 590.5 2011.8743 590.5 L 1939.7743 590.5 C 1931.2459 590.5 1924.3243 568.06715 1924.3243 540.42667 C 1924.3243 512.7862 1931.2459 490.35333 1939.7743 490.35333 Z" stroke="black" stroke-linecap="round" stroke-linejoin="round" stroke-width="1"/>
        <text transform="translate(1939.6243 512.75467)" fill="black">
          <tspan font-family="Helvetica Neue" font-size="16" fill="black" x="18.568" y="15" xml:space="preserve">state </tspan>
          <tspan font-family="Helvetica Neue" font-size="16" fill="black" x="17.384" y="33.448" xml:space="preserve">value </tspan>
          <tspan font-family="Helvetica Neue" font-size="16" fill="black" x="6.408001" y="51.895996" xml:space="preserve">updated</tspan>
        </text>
      </g>
      <g id="Line_55">
        <line x1="1975.8243" y1="318.23933" x2="1975.8243" y2="341.06735" marker-end="url(#StickArrow_Marker)" stroke="black" stroke-linecap="round" stroke-linejoin="round" stroke-width="1"/>
      </g>
      <g id="Graphic_56">
        <path d="M 2134.8827 427.63985 L 2218.0635 427.63985 C 2259.654 427.63985 2301.2443 417.13985 2301.2443 385.63985 C 2301.2443 354.13985 2259.654 343.63985 2218.0635 343.63985 L 2134.8827 343.63985 Z" fill="white"/>
        <path d="M 2134.8827 427.63985 L 2218.0635 427.63985 C 2259.654 427.63985 2301.2443 417.13985 2301.2443 385.63985 C 2301.2443 354.13985 2259.654 343.63985 2218.0635 343.63985 L 2134.8827 343.63985 Z" stroke="black" stroke-linecap="round" stroke-linejoin="round" stroke-width="1"/>
        <text transform="translate(2139.8827 376.41585)" fill="black">
          <tspan font-family="Helvetica Neue" font-size="16" fill="black" x="13.996771" y="15" xml:space="preserve">Transaction buffer</tspan>
        </text>
      </g>
      <g id="Graphic_57">
        <path d="M 1975.8243 351.46735 L 2049.5743 386.71735 L 1975.8243 421.96735 L 1902.0743 386.71735 Z" fill="white"/>
        <path d="M 1975.8243 351.46735 L 2049.5743 386.71735 L 1975.8243 421.96735 L 1902.0743 386.71735 Z" stroke="#a5a5a5" stroke-linecap="round" stroke-linejoin="round" stroke-width="1"/>
        <text transform="translate(1926.9868 367.56435)" fill="black">
          <tspan font-family="Helvetica Neue" font-size="16" fill="black" x="29.1285" y="15" xml:space="preserve">active </tspan>
          <tspan font-family="Helvetica Neue" font-size="16" fill="black" x="6.0085" y="33.448" xml:space="preserve">transaction?</tspan>
        </text>
      </g>
      <g id="Graphic_60">
        <path d="M 2134.8827 454.11787 L 2301.2443 454.11787 L 2267.972 505.41954 L 2168.155 505.41954 Z" fill="white"/>
        <path d="M 2134.8827 454.11787 L 2301.2443 454.11787 L 2267.972 505.41954 L 2168.155 505.41954 Z" stroke="#003776" stroke-linecap="round" stroke-linejoin="round" stroke-width="1"/>
        <text transform="translate(2151.528 469.51867)" fill="black">
          <tspan font-family="Helvetica Neue" font-size="16" fill="black" x="25.254694" y="15" xml:space="preserve">on complete</tspan>
        </text>
      </g>
      <g id="Line_63">
        <line x1="2049.0436" y1="386.22134" x2="2124.483" y2="385.7112" marker-end="url(#StickArrow_Marker)" stroke="black" stroke-linecap="round" stroke-linejoin="round" stroke-width="1"/>
      </g>
      <g id="Line_64">
        <line x1="2218.0635" y1="427.63985" x2="2218.0635" y2="443.71787" marker-end="url(#StickArrow_Marker)" stroke="black" stroke-linecap="round" stroke-linejoin="round" stroke-width="1"/>
      </g>
      <g id="Line_65">
        <path d="M 2256.885 453.84017 C 2266.0915 447.6913 2269.6494 449.8092 2284.507 435.3917 C 2299.3646 420.97426 2339.9102 416.61976 2346.0396 367.32673 C 2352.169 318.0337 2354.0745 191.07815 2321.287 139.60396 C 2288.4998 88.12977 2209.4282 70.566584 2149.2958 58.450704 C 2089.1633 46.334824 2016.4084 60.70643 1960.4563 66.90141 C 1908.2333 72.68349 1868.1726 84.35414 1823.2528 93.66804" marker-end="url(#StickArrow_Marker)" stroke="black" stroke-linecap="round" stroke-linejoin="round" stroke-dasharray="1.0,4.0" stroke-width="1"/>
      </g>
      <g id="Line_66">
        <line x1="1975.8243" y1="422.46735" x2="1975.8243" y2="480.45333" marker-end="url(#StickArrow_Marker)" stroke="black" stroke-linecap="round" stroke-linejoin="round" stroke-width="1"/>
      </g>
      <g id="Graphic_67">
        <rect x="1960.4563" y="435.3917" width="30.736" height="28.447998" fill="white"/>
        <text transform="translate(1965.4563 440.3917)" fill="black">
          <tspan font-family="Helvetica Neue" font-size="16" fill="black" x="39257486e-20" y="15" xml:space="preserve">No</tspan>
        </text>
      </g>
      <g id="Graphic_68">
        <rect x="2072.8675" y="371.71727" width="35.184" height="28.447998" fill="white"/>
        <text transform="translate(2077.8675 376.71727)" fill="black">
          <tspan font-family="Helvetica Neue" font-size="16" fill="black" x="552447e-18" y="15" xml:space="preserve">Yes</tspan>
        </text>
      </g>
      <g id="Graphic_69">
        <rect x="2134.8827" y="536.084" width="166.36154" height="58.60244" fill="white"/>
        <path d="M 2134.8827 536.084 L 2301.2443 536.084 L 2301.2443 594.6864 L 2134.8827 594.6864 Z M 2151.519 536.084 L 2151.519 594.6864 M 2284.608 594.6864 L 2284.608 536.084" stroke="#a5a5a5" stroke-linecap="round" stroke-linejoin="round" stroke-width="1"/>
        <text transform="translate(2156.519 537.7132)" fill="black">
          <tspan font-family="Helvetica Neue" font-size="16" fill="black" x="7.768617" y="15" xml:space="preserve">Broadcast new </tspan>
          <tspan font-family="Helvetica Neue" font-size="16" fill="black" x="33.392617" y="33.448" xml:space="preserve">value to </tspan>
          <tspan font-family="Helvetica Neue" font-size="16" fill="black" x="19.912617" y="51.895996" xml:space="preserve">subscribers</tspan>
        </text>
      </g>
      <g id="Line_70">
        <line x1="2025.4168" y1="564.536" x2="2124.983" y2="565.3084" marker-end="url(#StickArrow_Marker)" stroke="black" stroke-linecap="round" stroke-linejoin="round" stroke-width="1"/>
      </g>
    </g>
  </g>
</svg>
