<?xml version="1.0" encoding="UTF-8" standalone="no"?>
<!DOCTYPE svg PUBLIC "-//W3C//DTD SVG 1.1//EN" "http://www.w3.org/Graphics/SVG/1.1/DTD/svg11.dtd">
<svg width="100%" height="100%" viewBox="0 0 200 200" version="1.1" xmlns="http://www.w3.org/2000/svg" xmlns:xlink="http://www.w3.org/1999/xlink" xml:space="preserve" xmlns:serif="http://www.serif.com/" style="fill-rule:evenodd;clip-rule:evenodd;stroke-linecap:round;stroke-linejoin:round;stroke-miterlimit:1.5;">
    <g transform="matrix(1,0,0,1,-269,-696)">
        <g id="standin-art" transform="matrix(1.17647,0,0,1.42857,-47.5045,-299.215)">
            <rect x="269.029" y="696.65" width="170" height="140" style="fill:none;"/>
            <clipPath id="_clip1">
                <rect x="269.029" y="696.65" width="170" height="140"/>
            </clipPath>
            <g clip-path="url(#_clip1)">
                <g transform="matrix(0.894737,0,0,0.712996,19.3972,197.806)">
                    <rect x="279" y="699.645" width="190" height="196.355" style="fill:rgb(195,195,195);"/>
                    <clipPath id="_clip2">
                        <rect x="279" y="699.645" width="190" height="196.355"/>
                    </clipPath>
                    <g clip-path="url(#_clip2)">
                        <g transform="matrix(0.95,-2.96827e-16,-2.85005e-16,0.981773,23.45,16.3311)">
                            <path d="M269,696L469,896" style="fill:none;stroke:white;stroke-width:0.89px;"/>
                        </g>
                        <g transform="matrix(-0.95,-2.96827e-16,2.85005e-16,0.981773,724.55,16.3311)">
                            <path d="M269,696L469,896" style="fill:none;stroke:white;stroke-width:0.89px;"/>
                        </g>
                    </g>
                    <path d="M469,699.645L469,896L279,896L279,699.645L469,699.645ZM466.467,702.263L281.533,702.263C281.533,725.353 281.533,893.382 281.533,893.382C281.533,893.382 466.467,893.382 466.467,893.382L466.467,702.263Z" style="fill:rgb(41,41,41);"/>
                </g>
                <g transform="matrix(0.85,0,0,0.7,6.37881,167.45)">
                    <g transform="matrix(17.7778,0,0,17.7778,328.415,829.538)">
                        <path d="M0.077,-0L0.077,-0.686L0.421,-0.686C0.471,-0.686 0.512,-0.677 0.545,-0.659C0.578,-0.641 0.603,-0.616 0.619,-0.583C0.636,-0.551 0.644,-0.512 0.644,-0.467C0.644,-0.423 0.635,-0.384 0.618,-0.351C0.601,-0.318 0.575,-0.292 0.541,-0.273C0.507,-0.255 0.465,-0.246 0.414,-0.246L0.203,-0.246L0.203,-0L0.077,-0ZM0.203,-0.354L0.41,-0.354C0.444,-0.354 0.47,-0.364 0.489,-0.384C0.507,-0.404 0.517,-0.432 0.517,-0.467C0.517,-0.491 0.513,-0.511 0.505,-0.527C0.497,-0.543 0.485,-0.556 0.469,-0.565C0.453,-0.574 0.434,-0.578 0.41,-0.578L0.203,-0.578L0.203,-0.354Z" style="fill-rule:nonzero;"/>
                    </g>
                    <g transform="matrix(17.7778,0,0,17.7778,340.317,829.538)">
                        <rect x="0.065" y="-0.723" width="0.118" height="0.723" style="fill-rule:nonzero;"/>
                    </g>
                    <g transform="matrix(17.7778,0,0,17.7778,344.746,829.538)">
                        <path d="M0.2,0.012C0.185,0.012 0.168,0.01 0.149,0.006C0.13,0.003 0.111,-0.004 0.094,-0.014C0.076,-0.024 0.062,-0.039 0.051,-0.059C0.04,-0.079 0.034,-0.104 0.034,-0.136C0.034,-0.172 0.042,-0.202 0.058,-0.225C0.074,-0.249 0.097,-0.267 0.126,-0.281C0.155,-0.295 0.19,-0.304 0.231,-0.31C0.272,-0.315 0.316,-0.318 0.364,-0.318L0.364,-0.363C0.364,-0.379 0.362,-0.393 0.357,-0.405C0.352,-0.417 0.343,-0.427 0.33,-0.434C0.317,-0.441 0.298,-0.445 0.273,-0.445C0.248,-0.445 0.228,-0.441 0.213,-0.435C0.199,-0.429 0.189,-0.422 0.184,-0.412C0.178,-0.403 0.175,-0.394 0.175,-0.384L0.175,-0.37L0.061,-0.37C0.06,-0.373 0.06,-0.377 0.06,-0.38L0.06,-0.392C0.06,-0.422 0.069,-0.448 0.087,-0.47C0.105,-0.492 0.13,-0.509 0.162,-0.521C0.194,-0.532 0.231,-0.538 0.273,-0.538C0.32,-0.538 0.359,-0.531 0.39,-0.518C0.421,-0.505 0.444,-0.486 0.46,-0.461C0.475,-0.437 0.483,-0.407 0.483,-0.372L0.483,-0.12C0.483,-0.107 0.486,-0.098 0.493,-0.093C0.5,-0.088 0.508,-0.085 0.517,-0.085L0.55,-0.085L0.55,-0.004C0.543,-0.001 0.533,0.002 0.521,0.006C0.508,0.009 0.493,0.011 0.475,0.011C0.457,0.011 0.442,0.008 0.428,0.002C0.415,-0.003 0.404,-0.012 0.395,-0.023C0.386,-0.034 0.379,-0.046 0.376,-0.061L0.37,-0.061C0.358,-0.047 0.344,-0.034 0.328,-0.023C0.313,-0.012 0.294,-0.003 0.273,0.003C0.252,0.009 0.227,0.012 0.2,0.012ZM0.235,-0.085C0.256,-0.085 0.274,-0.088 0.29,-0.094C0.306,-0.1 0.319,-0.109 0.33,-0.12C0.341,-0.131 0.349,-0.144 0.355,-0.159C0.361,-0.175 0.364,-0.192 0.364,-0.21L0.364,-0.236C0.326,-0.236 0.291,-0.234 0.259,-0.229C0.227,-0.224 0.202,-0.215 0.183,-0.202C0.165,-0.189 0.156,-0.171 0.156,-0.147C0.156,-0.135 0.159,-0.124 0.164,-0.114C0.17,-0.105 0.179,-0.098 0.191,-0.093C0.203,-0.088 0.218,-0.085 0.235,-0.085Z" style="fill-rule:nonzero;"/>
                    </g>
                    <g transform="matrix(17.7778,0,0,17.7778,354.609,829.538)">
                        <path d="M0.282,0.012C0.228,0.012 0.183,0.002 0.147,-0.018C0.111,-0.037 0.084,-0.067 0.066,-0.108C0.048,-0.149 0.039,-0.2 0.039,-0.263C0.039,-0.326 0.048,-0.378 0.066,-0.418C0.084,-0.459 0.112,-0.489 0.148,-0.508C0.184,-0.528 0.229,-0.538 0.283,-0.538C0.318,-0.538 0.349,-0.534 0.377,-0.525C0.404,-0.516 0.427,-0.503 0.447,-0.485C0.466,-0.468 0.481,-0.446 0.491,-0.42C0.5,-0.394 0.505,-0.364 0.505,-0.329L0.385,-0.329C0.385,-0.355 0.381,-0.375 0.374,-0.392C0.366,-0.408 0.355,-0.421 0.34,-0.429C0.324,-0.437 0.305,-0.442 0.281,-0.442C0.253,-0.442 0.231,-0.435 0.213,-0.423C0.195,-0.41 0.182,-0.391 0.173,-0.366C0.164,-0.34 0.16,-0.308 0.16,-0.269L0.16,-0.256C0.16,-0.218 0.164,-0.186 0.173,-0.16C0.182,-0.134 0.195,-0.115 0.214,-0.103C0.232,-0.091 0.256,-0.084 0.285,-0.084C0.309,-0.084 0.328,-0.089 0.344,-0.097C0.359,-0.106 0.371,-0.118 0.379,-0.136C0.387,-0.153 0.391,-0.173 0.391,-0.197L0.505,-0.197C0.505,-0.164 0.5,-0.135 0.491,-0.109C0.481,-0.083 0.466,-0.062 0.447,-0.043C0.428,-0.025 0.405,-0.012 0.377,-0.002C0.349,0.007 0.318,0.012 0.282,0.012Z" style="fill-rule:nonzero;"/>
                    </g>
                    <g transform="matrix(17.7778,0,0,17.7778,364.28,829.538)">
                        <path d="M0.29,0.012C0.234,0.012 0.188,0.002 0.151,-0.018C0.113,-0.037 0.086,-0.067 0.067,-0.108C0.048,-0.149 0.039,-0.2 0.039,-0.263C0.039,-0.326 0.048,-0.378 0.067,-0.419C0.086,-0.459 0.114,-0.489 0.151,-0.509C0.188,-0.528 0.234,-0.538 0.29,-0.538C0.341,-0.538 0.383,-0.528 0.417,-0.509C0.452,-0.49 0.477,-0.461 0.495,-0.422C0.512,-0.383 0.521,-0.332 0.521,-0.271L0.521,-0.234L0.16,-0.234C0.162,-0.2 0.167,-0.172 0.176,-0.149C0.185,-0.126 0.199,-0.109 0.217,-0.098C0.236,-0.087 0.261,-0.081 0.291,-0.081C0.307,-0.081 0.322,-0.084 0.336,-0.088C0.349,-0.092 0.361,-0.098 0.371,-0.107C0.382,-0.115 0.39,-0.126 0.395,-0.139C0.401,-0.152 0.404,-0.167 0.404,-0.184L0.52,-0.184C0.52,-0.151 0.514,-0.122 0.503,-0.097C0.491,-0.073 0.475,-0.053 0.455,-0.037C0.434,-0.02 0.409,-0.008 0.381,-0C0.353,0.008 0.323,0.012 0.29,0.012ZM0.162,-0.318L0.397,-0.318C0.397,-0.341 0.395,-0.36 0.39,-0.376C0.384,-0.391 0.377,-0.405 0.368,-0.415C0.358,-0.425 0.347,-0.432 0.334,-0.437C0.321,-0.441 0.306,-0.444 0.29,-0.444C0.263,-0.444 0.241,-0.439 0.223,-0.43C0.205,-0.421 0.191,-0.408 0.182,-0.389C0.172,-0.37 0.166,-0.347 0.162,-0.318Z" style="fill-rule:nonzero;"/>
                    </g>
                    <g transform="matrix(17.7778,0,0,17.7778,374.228,829.538)">
                        <path d="M0.065,-0L0.065,-0.723L0.184,-0.723L0.184,-0.465L0.191,-0.465C0.202,-0.48 0.216,-0.492 0.231,-0.503C0.247,-0.514 0.264,-0.522 0.284,-0.529C0.304,-0.535 0.326,-0.538 0.35,-0.538C0.383,-0.538 0.413,-0.532 0.438,-0.52C0.464,-0.508 0.484,-0.489 0.499,-0.462C0.513,-0.436 0.52,-0.4 0.52,-0.356L0.52,-0L0.401,-0L0.401,-0.335C0.401,-0.354 0.399,-0.37 0.394,-0.382C0.39,-0.395 0.384,-0.405 0.375,-0.413C0.367,-0.42 0.356,-0.426 0.344,-0.429C0.332,-0.432 0.318,-0.434 0.304,-0.434C0.281,-0.434 0.261,-0.429 0.243,-0.418C0.225,-0.407 0.21,-0.392 0.2,-0.373C0.189,-0.354 0.184,-0.332 0.184,-0.306L0.184,-0L0.065,-0Z" style="fill-rule:nonzero;"/>
                    </g>
                    <g transform="matrix(17.7778,0,0,17.7778,384.571,829.538)">
                        <path d="M0.297,0.012C0.241,0.012 0.193,0.002 0.155,-0.018C0.116,-0.037 0.087,-0.067 0.068,-0.108C0.049,-0.149 0.039,-0.2 0.039,-0.263C0.039,-0.326 0.049,-0.378 0.068,-0.419C0.087,-0.459 0.116,-0.489 0.155,-0.509C0.193,-0.528 0.241,-0.538 0.297,-0.538C0.355,-0.538 0.403,-0.528 0.441,-0.509C0.479,-0.489 0.508,-0.459 0.527,-0.419C0.546,-0.378 0.556,-0.326 0.556,-0.263C0.556,-0.2 0.546,-0.149 0.527,-0.108C0.508,-0.067 0.479,-0.037 0.441,-0.018C0.403,0.002 0.355,0.012 0.297,0.012ZM0.297,-0.085C0.33,-0.085 0.356,-0.091 0.376,-0.104C0.396,-0.116 0.41,-0.135 0.42,-0.161C0.429,-0.186 0.434,-0.218 0.434,-0.256L0.434,-0.27C0.434,-0.308 0.429,-0.34 0.42,-0.365C0.41,-0.391 0.396,-0.41 0.376,-0.422C0.356,-0.435 0.33,-0.441 0.297,-0.441C0.265,-0.441 0.239,-0.435 0.219,-0.422C0.199,-0.41 0.185,-0.391 0.175,-0.365C0.166,-0.34 0.161,-0.308 0.161,-0.27L0.161,-0.256C0.161,-0.218 0.166,-0.186 0.175,-0.161C0.185,-0.135 0.199,-0.116 0.219,-0.104C0.239,-0.091 0.265,-0.085 0.297,-0.085Z" style="fill-rule:nonzero;"/>
                    </g>
                    <g transform="matrix(17.7778,0,0,17.7778,395.148,829.538)">
                        <rect x="0.065" y="-0.723" width="0.118" height="0.723" style="fill-rule:nonzero;"/>
                    </g>
                    <g transform="matrix(17.7778,0,0,17.7778,399.578,829.538)">
                        <path d="M0.248,0.012C0.205,0.012 0.168,0.002 0.137,-0.017C0.106,-0.036 0.081,-0.066 0.065,-0.107C0.048,-0.148 0.039,-0.2 0.039,-0.264C0.039,-0.328 0.048,-0.379 0.065,-0.42C0.082,-0.46 0.106,-0.49 0.137,-0.509C0.168,-0.528 0.202,-0.538 0.241,-0.538C0.265,-0.538 0.287,-0.535 0.307,-0.53C0.327,-0.525 0.345,-0.516 0.36,-0.505C0.376,-0.494 0.389,-0.481 0.399,-0.464L0.406,-0.464L0.406,-0.723L0.524,-0.723L0.524,-0L0.426,-0L0.416,-0.07L0.409,-0.07C0.392,-0.043 0.37,-0.022 0.342,-0.009C0.313,0.005 0.282,0.012 0.248,0.012ZM0.284,-0.09C0.313,-0.09 0.336,-0.096 0.354,-0.109C0.371,-0.122 0.384,-0.141 0.393,-0.165C0.401,-0.19 0.406,-0.22 0.406,-0.255L0.406,-0.268C0.406,-0.295 0.403,-0.319 0.398,-0.341C0.393,-0.362 0.386,-0.379 0.376,-0.393C0.366,-0.407 0.353,-0.418 0.338,-0.425C0.323,-0.432 0.305,-0.436 0.284,-0.436C0.254,-0.436 0.23,-0.43 0.212,-0.418C0.194,-0.406 0.181,-0.388 0.173,-0.364C0.165,-0.339 0.161,-0.307 0.161,-0.269L0.161,-0.255C0.161,-0.217 0.165,-0.186 0.173,-0.162C0.181,-0.137 0.194,-0.119 0.212,-0.108C0.23,-0.096 0.254,-0.09 0.284,-0.09Z" style="fill-rule:nonzero;"/>
                    </g>
                    <g transform="matrix(17.7778,0,0,17.7778,410.055,829.538)">
                        <path d="M0.29,0.012C0.234,0.012 0.188,0.002 0.151,-0.018C0.113,-0.037 0.086,-0.067 0.067,-0.108C0.048,-0.149 0.039,-0.2 0.039,-0.263C0.039,-0.326 0.048,-0.378 0.067,-0.419C0.086,-0.459 0.114,-0.489 0.151,-0.509C0.188,-0.528 0.234,-0.538 0.29,-0.538C0.341,-0.538 0.383,-0.528 0.417,-0.509C0.452,-0.49 0.477,-0.461 0.495,-0.422C0.512,-0.383 0.521,-0.332 0.521,-0.271L0.521,-0.234L0.16,-0.234C0.162,-0.2 0.167,-0.172 0.176,-0.149C0.185,-0.126 0.199,-0.109 0.217,-0.098C0.236,-0.087 0.261,-0.081 0.291,-0.081C0.307,-0.081 0.322,-0.084 0.336,-0.088C0.349,-0.092 0.361,-0.098 0.371,-0.107C0.382,-0.115 0.39,-0.126 0.395,-0.139C0.401,-0.152 0.404,-0.167 0.404,-0.184L0.52,-0.184C0.52,-0.151 0.514,-0.122 0.503,-0.097C0.491,-0.073 0.475,-0.053 0.455,-0.037C0.434,-0.02 0.409,-0.008 0.381,-0C0.353,0.008 0.323,0.012 0.29,0.012ZM0.162,-0.318L0.397,-0.318C0.397,-0.341 0.395,-0.36 0.39,-0.376C0.384,-0.391 0.377,-0.405 0.368,-0.415C0.358,-0.425 0.347,-0.432 0.334,-0.437C0.321,-0.441 0.306,-0.444 0.29,-0.444C0.263,-0.444 0.241,-0.439 0.223,-0.43C0.205,-0.421 0.191,-0.408 0.182,-0.389C0.172,-0.37 0.166,-0.347 0.162,-0.318Z" style="fill-rule:nonzero;"/>
                    </g>
                    <g transform="matrix(17.7778,0,0,17.7778,420.003,829.538)">
                        <path d="M0.065,-0L0.065,-0.526L0.164,-0.526L0.174,-0.443L0.181,-0.443C0.187,-0.459 0.196,-0.475 0.205,-0.489C0.215,-0.504 0.227,-0.515 0.243,-0.524C0.258,-0.533 0.277,-0.538 0.299,-0.538C0.31,-0.538 0.319,-0.537 0.328,-0.535C0.337,-0.533 0.344,-0.531 0.349,-0.529L0.349,-0.418L0.312,-0.418C0.291,-0.418 0.273,-0.415 0.257,-0.409C0.241,-0.403 0.227,-0.394 0.216,-0.382C0.205,-0.37 0.197,-0.354 0.192,-0.336C0.186,-0.318 0.184,-0.297 0.184,-0.273L0.184,-0L0.065,-0Z" style="fill-rule:nonzero;"/>
                    </g>
                    <g transform="matrix(17.7778,0,0,17.7778,426.026,829.538)">
                    </g>
                    <g transform="matrix(17.7778,0,0,17.7778,429.599,829.538)">
                        <path d="M0.065,-0.609L0.065,-0.723L0.184,-0.723L0.184,-0.609L0.065,-0.609ZM0.065,-0L0.065,-0.526L0.184,-0.526L0.184,-0L0.065,-0Z" style="fill-rule:nonzero;"/>
                    </g>
                    <g transform="matrix(17.7778,0,0,17.7778,434.029,829.538)">
                        <path d="M0.065,-0L0.065,-0.526L0.164,-0.526L0.174,-0.455L0.181,-0.455C0.193,-0.472 0.206,-0.486 0.221,-0.499C0.235,-0.511 0.252,-0.521 0.272,-0.528C0.291,-0.535 0.312,-0.538 0.334,-0.538C0.365,-0.538 0.393,-0.532 0.417,-0.519C0.441,-0.506 0.46,-0.485 0.473,-0.455L0.48,-0.455C0.491,-0.472 0.505,-0.486 0.52,-0.499C0.536,-0.511 0.553,-0.521 0.574,-0.528C0.594,-0.535 0.615,-0.538 0.639,-0.538C0.67,-0.538 0.698,-0.532 0.722,-0.521C0.746,-0.51 0.765,-0.491 0.779,-0.465C0.793,-0.439 0.8,-0.405 0.8,-0.362L0.8,-0L0.681,-0L0.681,-0.338C0.681,-0.356 0.679,-0.372 0.675,-0.384C0.671,-0.397 0.665,-0.406 0.658,-0.413C0.651,-0.421 0.642,-0.426 0.631,-0.429C0.621,-0.432 0.609,-0.434 0.597,-0.434C0.577,-0.434 0.56,-0.429 0.544,-0.418C0.528,-0.407 0.515,-0.392 0.506,-0.373C0.497,-0.354 0.492,-0.332 0.492,-0.306L0.492,-0L0.374,-0L0.374,-0.338C0.374,-0.356 0.372,-0.372 0.368,-0.384C0.363,-0.397 0.358,-0.406 0.351,-0.413C0.343,-0.421 0.335,-0.426 0.324,-0.429C0.314,-0.432 0.302,-0.434 0.29,-0.434C0.27,-0.434 0.252,-0.429 0.236,-0.418C0.22,-0.407 0.207,-0.392 0.198,-0.373C0.188,-0.354 0.184,-0.332 0.184,-0.306L0.184,-0L0.065,-0Z" style="fill-rule:nonzero;"/>
                    </g>
                    <g transform="matrix(17.7778,0,0,17.7778,449.333,829.538)">
                        <path d="M0.2,0.012C0.185,0.012 0.168,0.01 0.149,0.006C0.13,0.003 0.111,-0.004 0.094,-0.014C0.076,-0.024 0.062,-0.039 0.051,-0.059C0.04,-0.079 0.034,-0.104 0.034,-0.136C0.034,-0.172 0.042,-0.202 0.058,-0.225C0.074,-0.249 0.097,-0.267 0.126,-0.281C0.155,-0.295 0.19,-0.304 0.231,-0.31C0.272,-0.315 0.316,-0.318 0.364,-0.318L0.364,-0.363C0.364,-0.379 0.362,-0.393 0.357,-0.405C0.352,-0.417 0.343,-0.427 0.33,-0.434C0.317,-0.441 0.298,-0.445 0.273,-0.445C0.248,-0.445 0.228,-0.441 0.213,-0.435C0.199,-0.429 0.189,-0.422 0.184,-0.412C0.178,-0.403 0.175,-0.394 0.175,-0.384L0.175,-0.37L0.061,-0.37C0.06,-0.373 0.06,-0.377 0.06,-0.38L0.06,-0.392C0.06,-0.422 0.069,-0.448 0.087,-0.47C0.105,-0.492 0.13,-0.509 0.162,-0.521C0.194,-0.532 0.231,-0.538 0.273,-0.538C0.32,-0.538 0.359,-0.531 0.39,-0.518C0.421,-0.505 0.444,-0.486 0.46,-0.461C0.475,-0.437 0.483,-0.407 0.483,-0.372L0.483,-0.12C0.483,-0.107 0.486,-0.098 0.493,-0.093C0.5,-0.088 0.508,-0.085 0.517,-0.085L0.55,-0.085L0.55,-0.004C0.543,-0.001 0.533,0.002 0.521,0.006C0.508,0.009 0.493,0.011 0.475,0.011C0.457,0.011 0.442,0.008 0.428,0.002C0.415,-0.003 0.404,-0.012 0.395,-0.023C0.386,-0.034 0.379,-0.046 0.376,-0.061L0.37,-0.061C0.358,-0.047 0.344,-0.034 0.328,-0.023C0.313,-0.012 0.294,-0.003 0.273,0.003C0.252,0.009 0.227,0.012 0.2,0.012ZM0.235,-0.085C0.256,-0.085 0.274,-0.088 0.29,-0.094C0.306,-0.1 0.319,-0.109 0.33,-0.12C0.341,-0.131 0.349,-0.144 0.355,-0.159C0.361,-0.175 0.364,-0.192 0.364,-0.21L0.364,-0.236C0.326,-0.236 0.291,-0.234 0.259,-0.229C0.227,-0.224 0.202,-0.215 0.183,-0.202C0.165,-0.189 0.156,-0.171 0.156,-0.147C0.156,-0.135 0.159,-0.124 0.164,-0.114C0.17,-0.105 0.179,-0.098 0.191,-0.093C0.203,-0.088 0.218,-0.085 0.235,-0.085Z" style="fill-rule:nonzero;"/>
                    </g>
                    <g transform="matrix(17.7778,0,0,17.7778,459.196,829.538)">
                        <path d="M0.153,0.182C0.129,0.182 0.107,0.177 0.086,0.168C0.066,0.158 0.049,0.144 0.036,0.126C0.023,0.108 0.017,0.085 0.017,0.058C0.017,0.029 0.026,0.006 0.043,-0.011C0.059,-0.029 0.078,-0.042 0.099,-0.051C0.084,-0.058 0.071,-0.069 0.062,-0.083C0.052,-0.096 0.047,-0.112 0.047,-0.131C0.047,-0.156 0.056,-0.176 0.075,-0.191C0.093,-0.206 0.115,-0.216 0.139,-0.221C0.114,-0.236 0.095,-0.256 0.082,-0.279C0.069,-0.303 0.063,-0.33 0.063,-0.361C0.063,-0.397 0.072,-0.428 0.089,-0.455C0.107,-0.481 0.132,-0.501 0.166,-0.516C0.2,-0.531 0.241,-0.538 0.289,-0.538C0.308,-0.538 0.327,-0.537 0.345,-0.534C0.363,-0.531 0.379,-0.527 0.394,-0.522C0.418,-0.535 0.434,-0.551 0.443,-0.568C0.452,-0.586 0.457,-0.601 0.457,-0.613L0.573,-0.613C0.573,-0.59 0.569,-0.569 0.56,-0.551C0.551,-0.533 0.538,-0.519 0.522,-0.507C0.506,-0.495 0.487,-0.487 0.464,-0.482C0.481,-0.467 0.494,-0.449 0.502,-0.429C0.511,-0.408 0.515,-0.385 0.515,-0.361C0.515,-0.325 0.507,-0.293 0.49,-0.267C0.473,-0.24 0.448,-0.219 0.415,-0.205C0.383,-0.19 0.342,-0.183 0.294,-0.183L0.213,-0.183C0.199,-0.183 0.188,-0.18 0.18,-0.174C0.171,-0.167 0.167,-0.159 0.167,-0.148C0.167,-0.138 0.171,-0.13 0.179,-0.124C0.186,-0.117 0.196,-0.113 0.21,-0.113L0.438,-0.113C0.477,-0.113 0.51,-0.101 0.535,-0.075C0.561,-0.049 0.574,-0.016 0.574,0.024C0.574,0.053 0.566,0.08 0.55,0.104C0.535,0.128 0.513,0.147 0.485,0.161C0.458,0.175 0.425,0.182 0.388,0.182L0.153,0.182ZM0.195,0.096L0.387,0.096C0.4,0.096 0.412,0.094 0.422,0.089C0.432,0.085 0.439,0.078 0.445,0.07C0.451,0.062 0.454,0.052 0.454,0.042C0.454,0.024 0.449,0.011 0.437,0.001C0.426,-0.008 0.412,-0.012 0.396,-0.012L0.195,-0.012C0.178,-0.012 0.164,-0.007 0.153,0.003C0.142,0.013 0.137,0.026 0.137,0.042C0.137,0.058 0.142,0.071 0.153,0.081C0.163,0.091 0.177,0.096 0.195,0.096ZM0.29,-0.267C0.326,-0.267 0.353,-0.275 0.371,-0.291C0.389,-0.308 0.398,-0.331 0.398,-0.361C0.398,-0.39 0.389,-0.413 0.371,-0.43C0.353,-0.446 0.326,-0.454 0.29,-0.454C0.254,-0.454 0.226,-0.446 0.208,-0.43C0.19,-0.413 0.181,-0.39 0.181,-0.361C0.181,-0.341 0.185,-0.325 0.193,-0.31C0.201,-0.296 0.213,-0.285 0.229,-0.278C0.245,-0.27 0.265,-0.267 0.29,-0.267Z" style="fill-rule:nonzero;"/>
                    </g>
                    <g transform="matrix(17.7778,0,0,17.7778,469.637,829.538)">
                        <path d="M0.29,0.012C0.234,0.012 0.188,0.002 0.151,-0.018C0.113,-0.037 0.086,-0.067 0.067,-0.108C0.048,-0.149 0.039,-0.2 0.039,-0.263C0.039,-0.326 0.048,-0.378 0.067,-0.419C0.086,-0.459 0.114,-0.489 0.151,-0.509C0.188,-0.528 0.234,-0.538 0.29,-0.538C0.341,-0.538 0.383,-0.528 0.417,-0.509C0.452,-0.49 0.477,-0.461 0.495,-0.422C0.512,-0.383 0.521,-0.332 0.521,-0.271L0.521,-0.234L0.16,-0.234C0.162,-0.2 0.167,-0.172 0.176,-0.149C0.185,-0.126 0.199,-0.109 0.217,-0.098C0.236,-0.087 0.261,-0.081 0.291,-0.081C0.307,-0.081 0.322,-0.084 0.336,-0.088C0.349,-0.092 0.361,-0.098 0.371,-0.107C0.382,-0.115 0.39,-0.126 0.395,-0.139C0.401,-0.152 0.404,-0.167 0.404,-0.184L0.52,-0.184C0.52,-0.151 0.514,-0.122 0.503,-0.097C0.491,-0.073 0.475,-0.053 0.455,-0.037C0.434,-0.02 0.409,-0.008 0.381,-0C0.353,0.008 0.323,0.012 0.29,0.012ZM0.162,-0.318L0.397,-0.318C0.397,-0.341 0.395,-0.36 0.39,-0.376C0.384,-0.391 0.377,-0.405 0.368,-0.415C0.358,-0.425 0.347,-0.432 0.334,-0.437C0.321,-0.441 0.306,-0.444 0.29,-0.444C0.263,-0.444 0.241,-0.439 0.223,-0.43C0.205,-0.421 0.191,-0.408 0.182,-0.389C0.172,-0.37 0.166,-0.347 0.162,-0.318Z" style="fill-rule:nonzero;"/>
                    </g>
                    <g transform="matrix(16,0,0,16,362.449,863.316)">
                        <path d="M0.248,0.012C0.205,0.012 0.167,0.002 0.136,-0.017C0.105,-0.036 0.081,-0.067 0.065,-0.108C0.048,-0.149 0.04,-0.202 0.04,-0.267C0.04,-0.329 0.048,-0.38 0.065,-0.42C0.082,-0.46 0.106,-0.49 0.137,-0.509C0.168,-0.528 0.204,-0.538 0.245,-0.538C0.268,-0.538 0.289,-0.535 0.309,-0.53C0.329,-0.525 0.347,-0.516 0.363,-0.505C0.379,-0.493 0.392,-0.478 0.404,-0.459L0.411,-0.459L0.411,-0.723L0.495,-0.723L0.495,-0L0.428,-0L0.419,-0.075L0.412,-0.075C0.394,-0.046 0.371,-0.024 0.342,-0.01C0.313,0.005 0.282,0.012 0.248,0.012ZM0.267,-0.062C0.301,-0.062 0.328,-0.069 0.349,-0.084C0.37,-0.099 0.386,-0.121 0.396,-0.15C0.406,-0.178 0.411,-0.213 0.411,-0.255L0.411,-0.271C0.411,-0.308 0.407,-0.34 0.399,-0.365C0.392,-0.39 0.381,-0.409 0.368,-0.424C0.355,-0.438 0.341,-0.449 0.324,-0.455C0.307,-0.461 0.289,-0.464 0.27,-0.464C0.238,-0.464 0.211,-0.458 0.19,-0.444C0.169,-0.431 0.153,-0.411 0.143,-0.383C0.133,-0.355 0.128,-0.318 0.128,-0.274L0.128,-0.251C0.128,-0.205 0.133,-0.168 0.144,-0.141C0.155,-0.113 0.171,-0.093 0.191,-0.08C0.212,-0.068 0.237,-0.062 0.267,-0.062Z" style="fill-rule:nonzero;"/>
                    </g>
                    <g transform="matrix(16,0,0,16,371.478,863.316)">
                        <path d="M0.283,0.012C0.231,0.012 0.186,0.002 0.15,-0.018C0.114,-0.037 0.086,-0.067 0.067,-0.108C0.049,-0.149 0.04,-0.2 0.04,-0.263C0.04,-0.326 0.049,-0.378 0.067,-0.419C0.086,-0.459 0.114,-0.489 0.15,-0.509C0.186,-0.528 0.231,-0.538 0.283,-0.538C0.337,-0.538 0.381,-0.528 0.417,-0.509C0.453,-0.489 0.481,-0.459 0.499,-0.419C0.518,-0.378 0.527,-0.326 0.527,-0.263C0.527,-0.2 0.518,-0.149 0.499,-0.108C0.481,-0.067 0.453,-0.037 0.417,-0.018C0.381,0.002 0.337,0.012 0.283,0.012ZM0.283,-0.059C0.318,-0.059 0.346,-0.066 0.369,-0.08C0.392,-0.093 0.41,-0.114 0.422,-0.143C0.433,-0.171 0.439,-0.208 0.439,-0.252L0.439,-0.274C0.439,-0.319 0.433,-0.355 0.422,-0.384C0.41,-0.412 0.392,-0.433 0.369,-0.446C0.346,-0.46 0.318,-0.467 0.283,-0.467C0.249,-0.467 0.22,-0.46 0.197,-0.446C0.174,-0.433 0.157,-0.412 0.145,-0.384C0.134,-0.355 0.128,-0.319 0.128,-0.274L0.128,-0.252C0.128,-0.208 0.134,-0.171 0.145,-0.143C0.157,-0.114 0.174,-0.093 0.197,-0.08C0.22,-0.066 0.249,-0.059 0.283,-0.059Z" style="fill-rule:nonzero;"/>
                    </g>
                    <g transform="matrix(16,0,0,16,380.548,863.316)">
                        <path d="M0.232,0.012C0.182,0.012 0.141,-0.001 0.11,-0.027C0.079,-0.053 0.064,-0.098 0.064,-0.162L0.064,-0.526L0.149,-0.526L0.149,-0.173C0.149,-0.151 0.152,-0.133 0.157,-0.119C0.163,-0.104 0.17,-0.093 0.18,-0.085C0.19,-0.077 0.202,-0.071 0.216,-0.068C0.23,-0.064 0.245,-0.063 0.261,-0.063C0.287,-0.063 0.31,-0.069 0.332,-0.081C0.354,-0.094 0.372,-0.111 0.386,-0.135C0.4,-0.158 0.407,-0.185 0.407,-0.216L0.407,-0.526L0.491,-0.526L0.491,-0L0.424,-0L0.416,-0.08L0.409,-0.08C0.395,-0.058 0.379,-0.04 0.361,-0.027C0.343,-0.013 0.323,-0.003 0.302,0.003C0.28,0.009 0.257,0.012 0.232,0.012Z" style="fill-rule:nonzero;"/>
                    </g>
                    <g transform="matrix(16,0,0,16,389.514,863.316)">
                        <path d="M0.316,0.012C0.281,0.012 0.249,0.005 0.222,-0.01C0.194,-0.024 0.171,-0.046 0.152,-0.075L0.145,-0.075L0.137,-0L0.069,-0L0.069,-0.723L0.154,-0.723L0.154,-0.459L0.16,-0.459C0.172,-0.478 0.186,-0.493 0.202,-0.505C0.219,-0.516 0.237,-0.525 0.257,-0.53C0.277,-0.535 0.298,-0.538 0.32,-0.538C0.361,-0.538 0.397,-0.528 0.428,-0.509C0.459,-0.49 0.482,-0.46 0.499,-0.42C0.516,-0.38 0.525,-0.329 0.525,-0.267C0.525,-0.202 0.517,-0.149 0.5,-0.108C0.483,-0.067 0.459,-0.036 0.429,-0.017C0.398,0.002 0.36,0.012 0.316,0.012ZM0.297,-0.062C0.327,-0.062 0.352,-0.068 0.373,-0.08C0.394,-0.093 0.409,-0.113 0.42,-0.141C0.431,-0.168 0.437,-0.205 0.437,-0.251L0.437,-0.274C0.437,-0.318 0.431,-0.355 0.421,-0.383C0.411,-0.411 0.396,-0.431 0.374,-0.444C0.353,-0.458 0.327,-0.464 0.294,-0.464C0.275,-0.464 0.258,-0.461 0.241,-0.455C0.224,-0.449 0.209,-0.438 0.196,-0.424C0.183,-0.409 0.173,-0.39 0.165,-0.365C0.158,-0.34 0.154,-0.308 0.154,-0.271L0.154,-0.255C0.154,-0.213 0.159,-0.178 0.169,-0.15C0.178,-0.121 0.194,-0.099 0.215,-0.084C0.237,-0.069 0.264,-0.062 0.297,-0.062Z" style="fill-rule:nonzero;"/>
                    </g>
                    <g transform="matrix(16,0,0,16,398.543,863.316)">
                        <rect x="0.069" y="-0.723" width="0.085" height="0.723" style="fill-rule:nonzero;"/>
                    </g>
                    <g transform="matrix(16,0,0,16,402.109,863.316)">
                        <path d="M0.278,0.012C0.226,0.012 0.183,0.002 0.147,-0.018C0.112,-0.037 0.085,-0.067 0.067,-0.108C0.049,-0.149 0.04,-0.2 0.04,-0.263C0.04,-0.326 0.049,-0.378 0.067,-0.419C0.085,-0.459 0.112,-0.489 0.148,-0.509C0.184,-0.528 0.229,-0.538 0.282,-0.538C0.331,-0.538 0.373,-0.528 0.406,-0.509C0.439,-0.49 0.464,-0.462 0.481,-0.424C0.498,-0.387 0.507,-0.34 0.507,-0.285L0.507,-0.242L0.127,-0.242C0.128,-0.198 0.134,-0.163 0.146,-0.136C0.157,-0.109 0.174,-0.089 0.196,-0.076C0.219,-0.064 0.247,-0.057 0.28,-0.057C0.303,-0.057 0.323,-0.06 0.341,-0.066C0.358,-0.072 0.372,-0.081 0.384,-0.092C0.396,-0.103 0.405,-0.115 0.412,-0.13C0.418,-0.145 0.421,-0.162 0.422,-0.179L0.504,-0.179C0.504,-0.151 0.499,-0.125 0.489,-0.102C0.479,-0.079 0.464,-0.059 0.445,-0.042C0.426,-0.025 0.402,-0.011 0.374,-0.002C0.346,0.007 0.314,0.012 0.278,0.012ZM0.128,-0.306L0.419,-0.306C0.419,-0.336 0.415,-0.361 0.408,-0.382C0.402,-0.402 0.392,-0.419 0.38,-0.432C0.367,-0.445 0.353,-0.454 0.336,-0.46C0.319,-0.465 0.3,-0.468 0.279,-0.468C0.248,-0.468 0.222,-0.462 0.2,-0.451C0.178,-0.439 0.161,-0.422 0.15,-0.398C0.138,-0.374 0.131,-0.343 0.128,-0.306Z" style="fill-rule:nonzero;"/>
                    </g>
                    <g transform="matrix(16,0,0,16,410.852,863.316)">
                    </g>
                    <g transform="matrix(16,0,0,16,414.212,863.316)">
                        <path d="M0.268,0.012C0.218,0.012 0.175,0.002 0.141,-0.018C0.107,-0.038 0.081,-0.068 0.063,-0.109C0.045,-0.15 0.036,-0.201 0.036,-0.263C0.036,-0.325 0.045,-0.376 0.063,-0.416C0.081,-0.457 0.107,-0.488 0.142,-0.508C0.177,-0.528 0.219,-0.538 0.27,-0.538C0.307,-0.538 0.338,-0.533 0.364,-0.524C0.39,-0.515 0.412,-0.501 0.429,-0.483C0.446,-0.465 0.459,-0.443 0.467,-0.418C0.475,-0.392 0.479,-0.363 0.479,-0.332L0.394,-0.332C0.394,-0.363 0.39,-0.388 0.381,-0.408C0.373,-0.428 0.359,-0.443 0.341,-0.453C0.323,-0.462 0.298,-0.467 0.268,-0.467C0.239,-0.467 0.214,-0.461 0.192,-0.448C0.171,-0.435 0.154,-0.414 0.142,-0.386C0.13,-0.358 0.124,-0.32 0.124,-0.274L0.124,-0.252C0.124,-0.208 0.13,-0.171 0.141,-0.142C0.152,-0.114 0.169,-0.093 0.19,-0.079C0.212,-0.066 0.239,-0.059 0.27,-0.059C0.301,-0.059 0.325,-0.064 0.344,-0.075C0.362,-0.086 0.375,-0.101 0.384,-0.122C0.393,-0.142 0.397,-0.166 0.397,-0.194L0.479,-0.194C0.479,-0.166 0.475,-0.138 0.467,-0.113C0.459,-0.088 0.446,-0.066 0.429,-0.048C0.412,-0.029 0.39,-0.014 0.363,-0.004C0.337,0.007 0.305,0.012 0.268,0.012Z" style="fill-rule:nonzero;"/>
                    </g>
                    <g transform="matrix(16,0,0,16,422.466,863.316)">
                        <rect x="0.069" y="-0.723" width="0.085" height="0.723" style="fill-rule:nonzero;"/>
                    </g>
                    <g transform="matrix(16,0,0,16,426.031,863.316)">
                        <path d="M0.069,-0.627L0.069,-0.723L0.154,-0.723L0.154,-0.627L0.069,-0.627ZM0.069,-0L0.069,-0.526L0.154,-0.526L0.154,-0L0.069,-0Z" style="fill-rule:nonzero;"/>
                    </g>
                    <g transform="matrix(16,0,0,16,429.597,863.316)">
                        <path d="M0.268,0.012C0.218,0.012 0.175,0.002 0.141,-0.018C0.107,-0.038 0.081,-0.068 0.063,-0.109C0.045,-0.15 0.036,-0.201 0.036,-0.263C0.036,-0.325 0.045,-0.376 0.063,-0.416C0.081,-0.457 0.107,-0.488 0.142,-0.508C0.177,-0.528 0.219,-0.538 0.27,-0.538C0.307,-0.538 0.338,-0.533 0.364,-0.524C0.39,-0.515 0.412,-0.501 0.429,-0.483C0.446,-0.465 0.459,-0.443 0.467,-0.418C0.475,-0.392 0.479,-0.363 0.479,-0.332L0.394,-0.332C0.394,-0.363 0.39,-0.388 0.381,-0.408C0.373,-0.428 0.359,-0.443 0.341,-0.453C0.323,-0.462 0.298,-0.467 0.268,-0.467C0.239,-0.467 0.214,-0.461 0.192,-0.448C0.171,-0.435 0.154,-0.414 0.142,-0.386C0.13,-0.358 0.124,-0.32 0.124,-0.274L0.124,-0.252C0.124,-0.208 0.13,-0.171 0.141,-0.142C0.152,-0.114 0.169,-0.093 0.19,-0.079C0.212,-0.066 0.239,-0.059 0.27,-0.059C0.301,-0.059 0.325,-0.064 0.344,-0.075C0.362,-0.086 0.375,-0.101 0.384,-0.122C0.393,-0.142 0.397,-0.166 0.397,-0.194L0.479,-0.194C0.479,-0.166 0.475,-0.138 0.467,-0.113C0.459,-0.088 0.446,-0.066 0.429,-0.048C0.412,-0.029 0.39,-0.014 0.363,-0.004C0.337,0.007 0.305,0.012 0.268,0.012Z" style="fill-rule:nonzero;"/>
                    </g>
                    <g transform="matrix(16,0,0,16,437.85,863.316)">
                        <path d="M0.069,-0L0.069,-0.723L0.154,-0.723L0.154,-0.268L0.38,-0.526L0.481,-0.526L0.301,-0.322L0.491,-0L0.393,-0L0.245,-0.259L0.154,-0.167L0.154,-0L0.069,-0Z" style="fill-rule:nonzero;"/>
                    </g>
                    <g transform="matrix(16,0,0,16,445.551,863.316)">
                    </g>
                    <g transform="matrix(16,0,0,16,448.912,863.316)">
                    </g>
                    <g transform="matrix(16,0,0,16,369.357,879.316)">
                        <path d="M0.191,0.012C0.164,0.012 0.143,0.007 0.128,-0.003C0.113,-0.013 0.102,-0.026 0.096,-0.043C0.089,-0.06 0.086,-0.078 0.086,-0.097L0.086,-0.455L0.018,-0.455L0.018,-0.526L0.088,-0.526L0.104,-0.673L0.171,-0.673L0.171,-0.526L0.27,-0.526L0.27,-0.455L0.171,-0.455L0.171,-0.11C0.171,-0.093 0.174,-0.08 0.18,-0.072C0.185,-0.064 0.197,-0.059 0.213,-0.059L0.27,-0.059L0.27,-0.004C0.263,-0.001 0.255,0.002 0.246,0.004C0.237,0.006 0.228,0.008 0.218,0.01C0.208,0.011 0.199,0.012 0.191,0.012Z" style="fill-rule:nonzero;"/>
                    </g>
                    <g transform="matrix(16,0,0,16,374.083,879.316)">
                        <path d="M0.283,0.012C0.231,0.012 0.186,0.002 0.15,-0.018C0.114,-0.037 0.086,-0.067 0.067,-0.108C0.049,-0.149 0.04,-0.2 0.04,-0.263C0.04,-0.326 0.049,-0.378 0.067,-0.419C0.086,-0.459 0.114,-0.489 0.15,-0.509C0.186,-0.528 0.231,-0.538 0.283,-0.538C0.337,-0.538 0.381,-0.528 0.417,-0.509C0.453,-0.489 0.481,-0.459 0.499,-0.419C0.518,-0.378 0.527,-0.326 0.527,-0.263C0.527,-0.2 0.518,-0.149 0.499,-0.108C0.481,-0.067 0.453,-0.037 0.417,-0.018C0.381,0.002 0.337,0.012 0.283,0.012ZM0.283,-0.059C0.318,-0.059 0.346,-0.066 0.369,-0.08C0.392,-0.093 0.41,-0.114 0.422,-0.143C0.433,-0.171 0.439,-0.208 0.439,-0.252L0.439,-0.274C0.439,-0.319 0.433,-0.355 0.422,-0.384C0.41,-0.412 0.392,-0.433 0.369,-0.446C0.346,-0.46 0.318,-0.467 0.283,-0.467C0.249,-0.467 0.22,-0.46 0.197,-0.446C0.174,-0.433 0.157,-0.412 0.145,-0.384C0.134,-0.355 0.128,-0.319 0.128,-0.274L0.128,-0.252C0.128,-0.208 0.134,-0.171 0.145,-0.143C0.157,-0.114 0.174,-0.093 0.197,-0.08C0.22,-0.066 0.249,-0.059 0.283,-0.059Z" style="fill-rule:nonzero;"/>
                    </g>
                    <g transform="matrix(16,0,0,16,383.152,879.316)">
                    </g>
                    <g transform="matrix(16,0,0,16,386.513,879.316)">
                        <path d="M0.069,-0L0.069,-0.526L0.138,-0.526L0.145,-0.439L0.152,-0.439C0.157,-0.455 0.164,-0.471 0.174,-0.486C0.183,-0.501 0.196,-0.513 0.212,-0.523C0.228,-0.533 0.248,-0.538 0.271,-0.538C0.281,-0.538 0.29,-0.537 0.299,-0.536C0.307,-0.534 0.313,-0.532 0.317,-0.531L0.317,-0.452L0.284,-0.452C0.262,-0.452 0.242,-0.448 0.226,-0.44C0.209,-0.433 0.195,-0.421 0.185,-0.407C0.174,-0.393 0.166,-0.376 0.161,-0.357C0.156,-0.338 0.154,-0.317 0.154,-0.295L0.154,-0L0.069,-0Z" style="fill-rule:nonzero;"/>
                    </g>
                    <g transform="matrix(16,0,0,16,391.614,879.316)">
                        <path d="M0.278,0.012C0.226,0.012 0.183,0.002 0.147,-0.018C0.112,-0.037 0.085,-0.067 0.067,-0.108C0.049,-0.149 0.04,-0.2 0.04,-0.263C0.04,-0.326 0.049,-0.378 0.067,-0.419C0.085,-0.459 0.112,-0.489 0.148,-0.509C0.184,-0.528 0.229,-0.538 0.282,-0.538C0.331,-0.538 0.373,-0.528 0.406,-0.509C0.439,-0.49 0.464,-0.462 0.481,-0.424C0.498,-0.387 0.507,-0.34 0.507,-0.285L0.507,-0.242L0.127,-0.242C0.128,-0.198 0.134,-0.163 0.146,-0.136C0.157,-0.109 0.174,-0.089 0.196,-0.076C0.219,-0.064 0.247,-0.057 0.28,-0.057C0.303,-0.057 0.323,-0.06 0.341,-0.066C0.358,-0.072 0.372,-0.081 0.384,-0.092C0.396,-0.103 0.405,-0.115 0.412,-0.13C0.418,-0.145 0.421,-0.162 0.422,-0.179L0.504,-0.179C0.504,-0.151 0.499,-0.125 0.489,-0.102C0.479,-0.079 0.464,-0.059 0.445,-0.042C0.426,-0.025 0.402,-0.011 0.374,-0.002C0.346,0.007 0.314,0.012 0.278,0.012ZM0.128,-0.306L0.419,-0.306C0.419,-0.336 0.415,-0.361 0.408,-0.382C0.402,-0.402 0.392,-0.419 0.38,-0.432C0.367,-0.445 0.353,-0.454 0.336,-0.46C0.319,-0.465 0.3,-0.468 0.279,-0.468C0.248,-0.468 0.222,-0.462 0.2,-0.451C0.178,-0.439 0.161,-0.422 0.15,-0.398C0.138,-0.374 0.131,-0.343 0.128,-0.306Z" style="fill-rule:nonzero;"/>
                    </g>
                    <g transform="matrix(16,0,0,16,400.357,879.316)">
                        <path d="M0.069,0.173L0.069,-0.526L0.137,-0.526L0.145,-0.451L0.152,-0.451C0.171,-0.48 0.194,-0.502 0.222,-0.516C0.25,-0.531 0.281,-0.538 0.316,-0.538C0.36,-0.538 0.398,-0.528 0.429,-0.509C0.459,-0.49 0.483,-0.459 0.5,-0.419C0.517,-0.377 0.525,-0.324 0.525,-0.259C0.525,-0.197 0.516,-0.146 0.499,-0.106C0.482,-0.066 0.459,-0.036 0.428,-0.017C0.397,0.002 0.361,0.012 0.32,0.012C0.298,0.012 0.277,0.009 0.257,0.004C0.237,-0.001 0.219,-0.01 0.202,-0.022C0.186,-0.033 0.172,-0.048 0.16,-0.067L0.154,-0.067L0.154,0.173L0.069,0.173ZM0.294,-0.062C0.327,-0.062 0.353,-0.068 0.374,-0.082C0.396,-0.095 0.411,-0.115 0.421,-0.143C0.431,-0.171 0.437,-0.207 0.437,-0.251L0.437,-0.274C0.437,-0.32 0.431,-0.358 0.42,-0.385C0.409,-0.413 0.394,-0.433 0.373,-0.446C0.352,-0.458 0.327,-0.464 0.297,-0.464C0.264,-0.464 0.237,-0.457 0.215,-0.442C0.194,-0.427 0.178,-0.405 0.169,-0.376C0.159,-0.347 0.154,-0.312 0.154,-0.271L0.154,-0.254C0.154,-0.217 0.158,-0.186 0.165,-0.161C0.173,-0.136 0.183,-0.117 0.196,-0.102C0.209,-0.088 0.224,-0.077 0.241,-0.071C0.258,-0.065 0.275,-0.062 0.294,-0.062Z" style="fill-rule:nonzero;"/>
                    </g>
                    <g transform="matrix(16,0,0,16,409.387,879.316)">
                        <rect x="0.069" y="-0.723" width="0.085" height="0.723" style="fill-rule:nonzero;"/>
                    </g>
                    <g transform="matrix(16,0,0,16,412.952,879.316)">
                        <path d="M0.201,0.012C0.182,0.012 0.162,0.01 0.142,0.005C0.123,0 0.105,-0.007 0.088,-0.018C0.072,-0.029 0.059,-0.044 0.049,-0.063C0.039,-0.082 0.035,-0.105 0.035,-0.133C0.035,-0.17 0.043,-0.2 0.061,-0.223C0.078,-0.246 0.102,-0.264 0.133,-0.277C0.164,-0.29 0.201,-0.299 0.244,-0.304C0.287,-0.309 0.334,-0.311 0.384,-0.311L0.384,-0.373C0.384,-0.392 0.381,-0.409 0.374,-0.424C0.367,-0.438 0.355,-0.449 0.338,-0.457C0.32,-0.465 0.295,-0.469 0.263,-0.469C0.232,-0.469 0.208,-0.465 0.19,-0.457C0.172,-0.449 0.16,-0.439 0.153,-0.426C0.145,-0.414 0.142,-0.4 0.142,-0.386L0.142,-0.37L0.06,-0.37C0.059,-0.373 0.059,-0.377 0.059,-0.38L0.059,-0.392C0.059,-0.424 0.068,-0.451 0.085,-0.473C0.103,-0.495 0.128,-0.511 0.16,-0.522C0.192,-0.533 0.228,-0.538 0.27,-0.538C0.314,-0.538 0.35,-0.532 0.379,-0.519C0.409,-0.507 0.431,-0.489 0.446,-0.466C0.461,-0.443 0.469,-0.415 0.469,-0.382L0.469,-0.093C0.469,-0.081 0.472,-0.072 0.477,-0.067C0.483,-0.062 0.49,-0.059 0.499,-0.059L0.538,-0.059L0.538,-0.004C0.529,0.001 0.519,0.004 0.507,0.007C0.496,0.01 0.484,0.011 0.47,0.011C0.452,0.011 0.438,0.007 0.427,0C0.416,-0.007 0.408,-0.016 0.402,-0.029C0.396,-0.041 0.392,-0.055 0.39,-0.071L0.384,-0.071C0.371,-0.054 0.356,-0.039 0.337,-0.027C0.319,-0.014 0.298,-0.005 0.275,0.002C0.252,0.009 0.228,0.012 0.201,0.012ZM0.221,-0.059C0.243,-0.059 0.263,-0.063 0.283,-0.07C0.302,-0.076 0.319,-0.086 0.335,-0.098C0.35,-0.111 0.362,-0.126 0.371,-0.143C0.38,-0.161 0.384,-0.18 0.384,-0.201L0.384,-0.247C0.329,-0.247 0.282,-0.244 0.243,-0.238C0.204,-0.232 0.174,-0.221 0.154,-0.205C0.133,-0.189 0.123,-0.167 0.123,-0.139C0.123,-0.121 0.127,-0.106 0.136,-0.094C0.144,-0.082 0.155,-0.074 0.17,-0.068C0.185,-0.062 0.202,-0.059 0.221,-0.059Z" style="fill-rule:nonzero;"/>
                    </g>
                    <g transform="matrix(16,0,0,16,421.647,879.316)">
                        <path d="M0.268,0.012C0.218,0.012 0.175,0.002 0.141,-0.018C0.107,-0.038 0.081,-0.068 0.063,-0.109C0.045,-0.15 0.036,-0.201 0.036,-0.263C0.036,-0.325 0.045,-0.376 0.063,-0.416C0.081,-0.457 0.107,-0.488 0.142,-0.508C0.177,-0.528 0.219,-0.538 0.27,-0.538C0.307,-0.538 0.338,-0.533 0.364,-0.524C0.39,-0.515 0.412,-0.501 0.429,-0.483C0.446,-0.465 0.459,-0.443 0.467,-0.418C0.475,-0.392 0.479,-0.363 0.479,-0.332L0.394,-0.332C0.394,-0.363 0.39,-0.388 0.381,-0.408C0.373,-0.428 0.359,-0.443 0.341,-0.453C0.323,-0.462 0.298,-0.467 0.268,-0.467C0.239,-0.467 0.214,-0.461 0.192,-0.448C0.171,-0.435 0.154,-0.414 0.142,-0.386C0.13,-0.358 0.124,-0.32 0.124,-0.274L0.124,-0.252C0.124,-0.208 0.13,-0.171 0.141,-0.142C0.152,-0.114 0.169,-0.093 0.19,-0.079C0.212,-0.066 0.239,-0.059 0.27,-0.059C0.301,-0.059 0.325,-0.064 0.344,-0.075C0.362,-0.086 0.375,-0.101 0.384,-0.122C0.393,-0.142 0.397,-0.166 0.397,-0.194L0.479,-0.194C0.479,-0.166 0.475,-0.138 0.467,-0.113C0.459,-0.088 0.446,-0.066 0.429,-0.048C0.412,-0.029 0.39,-0.014 0.363,-0.004C0.337,0.007 0.305,0.012 0.268,0.012Z" style="fill-rule:nonzero;"/>
                    </g>
                    <g transform="matrix(16,0,0,16,429.901,879.316)">
                        <path d="M0.278,0.012C0.226,0.012 0.183,0.002 0.147,-0.018C0.112,-0.037 0.085,-0.067 0.067,-0.108C0.049,-0.149 0.04,-0.2 0.04,-0.263C0.04,-0.326 0.049,-0.378 0.067,-0.419C0.085,-0.459 0.112,-0.489 0.148,-0.509C0.184,-0.528 0.229,-0.538 0.282,-0.538C0.331,-0.538 0.373,-0.528 0.406,-0.509C0.439,-0.49 0.464,-0.462 0.481,-0.424C0.498,-0.387 0.507,-0.34 0.507,-0.285L0.507,-0.242L0.127,-0.242C0.128,-0.198 0.134,-0.163 0.146,-0.136C0.157,-0.109 0.174,-0.089 0.196,-0.076C0.219,-0.064 0.247,-0.057 0.28,-0.057C0.303,-0.057 0.323,-0.06 0.341,-0.066C0.358,-0.072 0.372,-0.081 0.384,-0.092C0.396,-0.103 0.405,-0.115 0.412,-0.13C0.418,-0.145 0.421,-0.162 0.422,-0.179L0.504,-0.179C0.504,-0.151 0.499,-0.125 0.489,-0.102C0.479,-0.079 0.464,-0.059 0.445,-0.042C0.426,-0.025 0.402,-0.011 0.374,-0.002C0.346,0.007 0.314,0.012 0.278,0.012ZM0.128,-0.306L0.419,-0.306C0.419,-0.336 0.415,-0.361 0.408,-0.382C0.402,-0.402 0.392,-0.419 0.38,-0.432C0.367,-0.445 0.353,-0.454 0.336,-0.46C0.319,-0.465 0.3,-0.468 0.279,-0.468C0.248,-0.468 0.222,-0.462 0.2,-0.451C0.178,-0.439 0.161,-0.422 0.15,-0.398C0.138,-0.374 0.131,-0.343 0.128,-0.306Z" style="fill-rule:nonzero;"/>
                    </g>
                    <g transform="matrix(16,0,0,16,438.643,879.316)">
                    </g>
                    <g transform="matrix(16,0,0,16,442.004,879.316)">
                    </g>
                    <g transform="matrix(16,0,0,16,327.929,895.316)">
                        <path d="M0.171,-0L0.012,-0.526L0.099,-0.526L0.18,-0.236C0.184,-0.222 0.188,-0.207 0.192,-0.191C0.196,-0.175 0.2,-0.159 0.203,-0.145C0.207,-0.131 0.209,-0.121 0.211,-0.113L0.217,-0.113C0.22,-0.126 0.223,-0.14 0.227,-0.156C0.23,-0.172 0.234,-0.188 0.237,-0.203C0.24,-0.218 0.243,-0.229 0.245,-0.238L0.317,-0.526L0.409,-0.526L0.482,-0.237C0.485,-0.226 0.488,-0.213 0.491,-0.198C0.495,-0.183 0.498,-0.167 0.502,-0.152C0.505,-0.137 0.508,-0.124 0.51,-0.113L0.515,-0.113C0.518,-0.124 0.521,-0.136 0.525,-0.151C0.529,-0.166 0.532,-0.181 0.536,-0.196C0.54,-0.211 0.544,-0.224 0.547,-0.236L0.627,-0.526L0.708,-0.526L0.55,-0L0.464,-0L0.395,-0.274C0.392,-0.286 0.389,-0.301 0.385,-0.318C0.38,-0.336 0.377,-0.353 0.373,-0.371C0.369,-0.389 0.366,-0.404 0.363,-0.418L0.357,-0.418C0.356,-0.408 0.353,-0.395 0.35,-0.379C0.347,-0.363 0.343,-0.346 0.339,-0.328C0.335,-0.31 0.331,-0.292 0.326,-0.274L0.257,-0L0.171,-0Z" style="fill-rule:nonzero;"/>
                    </g>
                    <g transform="matrix(16,0,0,16,339.445,895.316)">
                        <path d="M0.069,-0.627L0.069,-0.723L0.154,-0.723L0.154,-0.627L0.069,-0.627ZM0.069,-0L0.069,-0.526L0.154,-0.526L0.154,-0L0.069,-0Z" style="fill-rule:nonzero;"/>
                    </g>
                    <g transform="matrix(16,0,0,16,343.011,895.316)">
                        <path d="M0.191,0.012C0.164,0.012 0.143,0.007 0.128,-0.003C0.113,-0.013 0.102,-0.026 0.096,-0.043C0.089,-0.06 0.086,-0.078 0.086,-0.097L0.086,-0.455L0.018,-0.455L0.018,-0.526L0.088,-0.526L0.104,-0.673L0.171,-0.673L0.171,-0.526L0.27,-0.526L0.27,-0.455L0.171,-0.455L0.171,-0.11C0.171,-0.093 0.174,-0.08 0.18,-0.072C0.185,-0.064 0.197,-0.059 0.213,-0.059L0.27,-0.059L0.27,-0.004C0.263,-0.001 0.255,0.002 0.246,0.004C0.237,0.006 0.228,0.008 0.218,0.01C0.208,0.011 0.199,0.012 0.191,0.012Z" style="fill-rule:nonzero;"/>
                    </g>
                    <g transform="matrix(16,0,0,16,347.737,895.316)">
                        <path d="M0.069,-0L0.069,-0.723L0.154,-0.723L0.154,-0.46L0.161,-0.46C0.175,-0.478 0.19,-0.493 0.207,-0.504C0.223,-0.515 0.242,-0.524 0.262,-0.53C0.283,-0.535 0.305,-0.538 0.329,-0.538C0.362,-0.538 0.391,-0.532 0.417,-0.521C0.442,-0.51 0.461,-0.492 0.476,-0.467C0.49,-0.441 0.497,-0.407 0.497,-0.364L0.497,-0L0.412,-0L0.412,-0.353C0.412,-0.375 0.409,-0.393 0.403,-0.407C0.398,-0.422 0.39,-0.433 0.38,-0.441C0.37,-0.449 0.358,-0.455 0.344,-0.458C0.33,-0.462 0.315,-0.463 0.299,-0.463C0.274,-0.463 0.25,-0.457 0.228,-0.445C0.205,-0.434 0.188,-0.416 0.174,-0.394C0.161,-0.371 0.154,-0.343 0.154,-0.31L0.154,-0L0.069,-0Z" style="fill-rule:nonzero;"/>
                    </g>
                    <g transform="matrix(16,0,0,16,356.711,895.316)">
                    </g>
                    <g transform="matrix(16,0,0,16,360.072,895.316)">
                        <path d="M0.112,0.182C0.097,0.182 0.083,0.181 0.072,0.179C0.061,0.177 0.053,0.175 0.049,0.175L0.049,0.112L0.092,0.112C0.108,0.112 0.124,0.109 0.14,0.103C0.155,0.096 0.17,0.085 0.183,0.069C0.196,0.052 0.208,0.029 0.218,-0L0.014,-0.526L0.103,-0.526L0.208,-0.253C0.213,-0.241 0.218,-0.225 0.225,-0.207C0.231,-0.188 0.237,-0.169 0.244,-0.15C0.25,-0.131 0.256,-0.113 0.26,-0.098L0.265,-0.098C0.268,-0.109 0.272,-0.121 0.276,-0.135C0.28,-0.148 0.284,-0.162 0.288,-0.176C0.293,-0.191 0.297,-0.204 0.301,-0.218C0.306,-0.231 0.309,-0.242 0.312,-0.252L0.403,-0.526L0.488,-0.526L0.309,-0.013C0.299,0.015 0.288,0.042 0.277,0.066C0.265,0.09 0.252,0.11 0.237,0.128C0.222,0.145 0.205,0.158 0.184,0.168C0.164,0.177 0.14,0.182 0.112,0.182Z" style="fill-rule:nonzero;"/>
                    </g>
                    <g transform="matrix(16,0,0,16,368.102,895.316)">
                        <path d="M0.283,0.012C0.231,0.012 0.186,0.002 0.15,-0.018C0.114,-0.037 0.086,-0.067 0.067,-0.108C0.049,-0.149 0.04,-0.2 0.04,-0.263C0.04,-0.326 0.049,-0.378 0.067,-0.419C0.086,-0.459 0.114,-0.489 0.15,-0.509C0.186,-0.528 0.231,-0.538 0.283,-0.538C0.337,-0.538 0.381,-0.528 0.417,-0.509C0.453,-0.489 0.481,-0.459 0.499,-0.419C0.518,-0.378 0.527,-0.326 0.527,-0.263C0.527,-0.2 0.518,-0.149 0.499,-0.108C0.481,-0.067 0.453,-0.037 0.417,-0.018C0.381,0.002 0.337,0.012 0.283,0.012ZM0.283,-0.059C0.318,-0.059 0.346,-0.066 0.369,-0.08C0.392,-0.093 0.41,-0.114 0.422,-0.143C0.433,-0.171 0.439,-0.208 0.439,-0.252L0.439,-0.274C0.439,-0.319 0.433,-0.355 0.422,-0.384C0.41,-0.412 0.392,-0.433 0.369,-0.446C0.346,-0.46 0.318,-0.467 0.283,-0.467C0.249,-0.467 0.22,-0.46 0.197,-0.446C0.174,-0.433 0.157,-0.412 0.145,-0.384C0.134,-0.355 0.128,-0.319 0.128,-0.274L0.128,-0.252C0.128,-0.208 0.134,-0.171 0.145,-0.143C0.157,-0.114 0.174,-0.093 0.197,-0.08C0.22,-0.066 0.249,-0.059 0.283,-0.059Z" style="fill-rule:nonzero;"/>
                    </g>
                    <g transform="matrix(16,0,0,16,377.171,895.316)">
                        <path d="M0.232,0.012C0.182,0.012 0.141,-0.001 0.11,-0.027C0.079,-0.053 0.064,-0.098 0.064,-0.162L0.064,-0.526L0.149,-0.526L0.149,-0.173C0.149,-0.151 0.152,-0.133 0.157,-0.119C0.163,-0.104 0.17,-0.093 0.18,-0.085C0.19,-0.077 0.202,-0.071 0.216,-0.068C0.23,-0.064 0.245,-0.063 0.261,-0.063C0.287,-0.063 0.31,-0.069 0.332,-0.081C0.354,-0.094 0.372,-0.111 0.386,-0.135C0.4,-0.158 0.407,-0.185 0.407,-0.216L0.407,-0.526L0.491,-0.526L0.491,-0L0.424,-0L0.416,-0.08L0.409,-0.08C0.395,-0.058 0.379,-0.04 0.361,-0.027C0.343,-0.013 0.323,-0.003 0.302,0.003C0.28,0.009 0.257,0.012 0.232,0.012Z" style="fill-rule:nonzero;"/>
                    </g>
                    <g transform="matrix(16,0,0,16,386.137,895.316)">
                        <path d="M0.069,-0L0.069,-0.526L0.138,-0.526L0.145,-0.439L0.152,-0.439C0.157,-0.455 0.164,-0.471 0.174,-0.486C0.183,-0.501 0.196,-0.513 0.212,-0.523C0.228,-0.533 0.248,-0.538 0.271,-0.538C0.281,-0.538 0.29,-0.537 0.299,-0.536C0.307,-0.534 0.313,-0.532 0.317,-0.531L0.317,-0.452L0.284,-0.452C0.262,-0.452 0.242,-0.448 0.226,-0.44C0.209,-0.433 0.195,-0.421 0.185,-0.407C0.174,-0.393 0.166,-0.376 0.161,-0.357C0.156,-0.338 0.154,-0.317 0.154,-0.295L0.154,-0L0.069,-0Z" style="fill-rule:nonzero;"/>
                    </g>
                    <g transform="matrix(16,0,0,16,391.078,895.316)">
                    </g>
                    <g transform="matrix(16,0,0,16,394.439,895.316)">
                        <path d="M0.283,0.012C0.231,0.012 0.186,0.002 0.15,-0.018C0.114,-0.037 0.086,-0.067 0.067,-0.108C0.049,-0.149 0.04,-0.2 0.04,-0.263C0.04,-0.326 0.049,-0.378 0.067,-0.419C0.086,-0.459 0.114,-0.489 0.15,-0.509C0.186,-0.528 0.231,-0.538 0.283,-0.538C0.337,-0.538 0.381,-0.528 0.417,-0.509C0.453,-0.489 0.481,-0.459 0.499,-0.419C0.518,-0.378 0.527,-0.326 0.527,-0.263C0.527,-0.2 0.518,-0.149 0.499,-0.108C0.481,-0.067 0.453,-0.037 0.417,-0.018C0.381,0.002 0.337,0.012 0.283,0.012ZM0.283,-0.059C0.318,-0.059 0.346,-0.066 0.369,-0.08C0.392,-0.093 0.41,-0.114 0.422,-0.143C0.433,-0.171 0.439,-0.208 0.439,-0.252L0.439,-0.274C0.439,-0.319 0.433,-0.355 0.422,-0.384C0.41,-0.412 0.392,-0.433 0.369,-0.446C0.346,-0.46 0.318,-0.467 0.283,-0.467C0.249,-0.467 0.22,-0.46 0.197,-0.446C0.174,-0.433 0.157,-0.412 0.145,-0.384C0.134,-0.355 0.128,-0.319 0.128,-0.274L0.128,-0.252C0.128,-0.208 0.134,-0.171 0.145,-0.143C0.157,-0.114 0.174,-0.093 0.197,-0.08C0.22,-0.066 0.249,-0.059 0.283,-0.059Z" style="fill-rule:nonzero;"/>
                    </g>
                    <g transform="matrix(16,0,0,16,403.509,895.316)">
                        <path d="M0.171,-0L0.012,-0.526L0.099,-0.526L0.18,-0.236C0.184,-0.222 0.188,-0.207 0.192,-0.191C0.196,-0.175 0.2,-0.159 0.203,-0.145C0.207,-0.131 0.209,-0.121 0.211,-0.113L0.217,-0.113C0.22,-0.126 0.223,-0.14 0.227,-0.156C0.23,-0.172 0.234,-0.188 0.237,-0.203C0.24,-0.218 0.243,-0.229 0.245,-0.238L0.317,-0.526L0.409,-0.526L0.482,-0.237C0.485,-0.226 0.488,-0.213 0.491,-0.198C0.495,-0.183 0.498,-0.167 0.502,-0.152C0.505,-0.137 0.508,-0.124 0.51,-0.113L0.515,-0.113C0.518,-0.124 0.521,-0.136 0.525,-0.151C0.529,-0.166 0.532,-0.181 0.536,-0.196C0.54,-0.211 0.544,-0.224 0.547,-0.236L0.627,-0.526L0.708,-0.526L0.55,-0L0.464,-0L0.395,-0.274C0.392,-0.286 0.389,-0.301 0.385,-0.318C0.38,-0.336 0.377,-0.353 0.373,-0.371C0.369,-0.389 0.366,-0.404 0.363,-0.418L0.357,-0.418C0.356,-0.408 0.353,-0.395 0.35,-0.379C0.347,-0.363 0.343,-0.346 0.339,-0.328C0.335,-0.31 0.331,-0.292 0.326,-0.274L0.257,-0L0.171,-0Z" style="fill-rule:nonzero;"/>
                    </g>
                    <g transform="matrix(16,0,0,16,415.025,895.316)">
                        <path d="M0.069,-0L0.069,-0.526L0.137,-0.526L0.145,-0.446L0.152,-0.446C0.166,-0.468 0.182,-0.486 0.2,-0.499C0.218,-0.513 0.238,-0.523 0.26,-0.529C0.281,-0.535 0.304,-0.538 0.329,-0.538C0.362,-0.538 0.391,-0.532 0.417,-0.521C0.442,-0.51 0.461,-0.492 0.476,-0.467C0.49,-0.441 0.497,-0.407 0.497,-0.364L0.497,-0L0.412,-0L0.412,-0.353C0.412,-0.375 0.409,-0.393 0.403,-0.407C0.398,-0.422 0.39,-0.433 0.38,-0.441C0.37,-0.449 0.358,-0.455 0.344,-0.458C0.33,-0.462 0.315,-0.463 0.299,-0.463C0.274,-0.463 0.25,-0.457 0.228,-0.445C0.205,-0.432 0.188,-0.415 0.174,-0.392C0.161,-0.369 0.154,-0.342 0.154,-0.31L0.154,-0L0.069,-0Z" style="fill-rule:nonzero;"/>
                    </g>
                    <g transform="matrix(16,0,0,16,423.999,895.316)">
                    </g>
                    <g transform="matrix(16,0,0,16,427.36,895.316)">
                        <path d="M0.201,0.012C0.182,0.012 0.162,0.01 0.142,0.005C0.123,0 0.105,-0.007 0.088,-0.018C0.072,-0.029 0.059,-0.044 0.049,-0.063C0.039,-0.082 0.035,-0.105 0.035,-0.133C0.035,-0.17 0.043,-0.2 0.061,-0.223C0.078,-0.246 0.102,-0.264 0.133,-0.277C0.164,-0.29 0.201,-0.299 0.244,-0.304C0.287,-0.309 0.334,-0.311 0.384,-0.311L0.384,-0.373C0.384,-0.392 0.381,-0.409 0.374,-0.424C0.367,-0.438 0.355,-0.449 0.338,-0.457C0.32,-0.465 0.295,-0.469 0.263,-0.469C0.232,-0.469 0.208,-0.465 0.19,-0.457C0.172,-0.449 0.16,-0.439 0.153,-0.426C0.145,-0.414 0.142,-0.4 0.142,-0.386L0.142,-0.37L0.06,-0.37C0.059,-0.373 0.059,-0.377 0.059,-0.38L0.059,-0.392C0.059,-0.424 0.068,-0.451 0.085,-0.473C0.103,-0.495 0.128,-0.511 0.16,-0.522C0.192,-0.533 0.228,-0.538 0.27,-0.538C0.314,-0.538 0.35,-0.532 0.379,-0.519C0.409,-0.507 0.431,-0.489 0.446,-0.466C0.461,-0.443 0.469,-0.415 0.469,-0.382L0.469,-0.093C0.469,-0.081 0.472,-0.072 0.477,-0.067C0.483,-0.062 0.49,-0.059 0.499,-0.059L0.538,-0.059L0.538,-0.004C0.529,0.001 0.519,0.004 0.507,0.007C0.496,0.01 0.484,0.011 0.47,0.011C0.452,0.011 0.438,0.007 0.427,0C0.416,-0.007 0.408,-0.016 0.402,-0.029C0.396,-0.041 0.392,-0.055 0.39,-0.071L0.384,-0.071C0.371,-0.054 0.356,-0.039 0.337,-0.027C0.319,-0.014 0.298,-0.005 0.275,0.002C0.252,0.009 0.228,0.012 0.201,0.012ZM0.221,-0.059C0.243,-0.059 0.263,-0.063 0.283,-0.07C0.302,-0.076 0.319,-0.086 0.335,-0.098C0.35,-0.111 0.362,-0.126 0.371,-0.143C0.38,-0.161 0.384,-0.18 0.384,-0.201L0.384,-0.247C0.329,-0.247 0.282,-0.244 0.243,-0.238C0.204,-0.232 0.174,-0.221 0.154,-0.205C0.133,-0.189 0.123,-0.167 0.123,-0.139C0.123,-0.121 0.127,-0.106 0.136,-0.094C0.144,-0.082 0.155,-0.074 0.17,-0.068C0.185,-0.062 0.202,-0.059 0.221,-0.059Z" style="fill-rule:nonzero;"/>
                    </g>
                    <g transform="matrix(16,0,0,16,436.055,895.316)">
                        <path d="M0.069,-0L0.069,-0.526L0.138,-0.526L0.145,-0.439L0.152,-0.439C0.157,-0.455 0.164,-0.471 0.174,-0.486C0.183,-0.501 0.196,-0.513 0.212,-0.523C0.228,-0.533 0.248,-0.538 0.271,-0.538C0.281,-0.538 0.29,-0.537 0.299,-0.536C0.307,-0.534 0.313,-0.532 0.317,-0.531L0.317,-0.452L0.284,-0.452C0.262,-0.452 0.242,-0.448 0.226,-0.44C0.209,-0.433 0.195,-0.421 0.185,-0.407C0.174,-0.393 0.166,-0.376 0.161,-0.357C0.156,-0.338 0.154,-0.317 0.154,-0.295L0.154,-0L0.069,-0Z" style="fill-rule:nonzero;"/>
                    </g>
                    <g transform="matrix(16,0,0,16,441.316,895.316)">
                        <path d="M0.191,0.012C0.164,0.012 0.143,0.007 0.128,-0.003C0.113,-0.013 0.102,-0.026 0.096,-0.043C0.089,-0.06 0.086,-0.078 0.086,-0.097L0.086,-0.455L0.018,-0.455L0.018,-0.526L0.088,-0.526L0.104,-0.673L0.171,-0.673L0.171,-0.526L0.27,-0.526L0.27,-0.455L0.171,-0.455L0.171,-0.11C0.171,-0.093 0.174,-0.08 0.18,-0.072C0.185,-0.064 0.197,-0.059 0.213,-0.059L0.27,-0.059L0.27,-0.004C0.263,-0.001 0.255,0.002 0.246,0.004C0.237,0.006 0.228,0.008 0.218,0.01C0.208,0.011 0.199,0.012 0.191,0.012Z" style="fill-rule:nonzero;"/>
                    </g>
                    <g transform="matrix(16,0,0,16,446.043,895.316)">
                        <path d="M0.171,-0L0.012,-0.526L0.099,-0.526L0.18,-0.236C0.184,-0.222 0.188,-0.207 0.192,-0.191C0.196,-0.175 0.2,-0.159 0.203,-0.145C0.207,-0.131 0.209,-0.121 0.211,-0.113L0.217,-0.113C0.22,-0.126 0.223,-0.14 0.227,-0.156C0.23,-0.172 0.234,-0.188 0.237,-0.203C0.24,-0.218 0.243,-0.229 0.245,-0.238L0.317,-0.526L0.409,-0.526L0.482,-0.237C0.485,-0.226 0.488,-0.213 0.491,-0.198C0.495,-0.183 0.498,-0.167 0.502,-0.152C0.505,-0.137 0.508,-0.124 0.51,-0.113L0.515,-0.113C0.518,-0.124 0.521,-0.136 0.525,-0.151C0.529,-0.166 0.532,-0.181 0.536,-0.196C0.54,-0.211 0.544,-0.224 0.547,-0.236L0.627,-0.526L0.708,-0.526L0.55,-0L0.464,-0L0.395,-0.274C0.392,-0.286 0.389,-0.301 0.385,-0.318C0.38,-0.336 0.377,-0.353 0.373,-0.371C0.369,-0.389 0.366,-0.404 0.363,-0.418L0.357,-0.418C0.356,-0.408 0.353,-0.395 0.35,-0.379C0.347,-0.363 0.343,-0.346 0.339,-0.328C0.335,-0.31 0.331,-0.292 0.326,-0.274L0.257,-0L0.171,-0Z" style="fill-rule:nonzero;"/>
                    </g>
                    <g transform="matrix(16,0,0,16,457.56,895.316)">
                        <path d="M0.283,0.012C0.231,0.012 0.186,0.002 0.15,-0.018C0.114,-0.037 0.086,-0.067 0.067,-0.108C0.049,-0.149 0.04,-0.2 0.04,-0.263C0.04,-0.326 0.049,-0.378 0.067,-0.419C0.086,-0.459 0.114,-0.489 0.15,-0.509C0.186,-0.528 0.231,-0.538 0.283,-0.538C0.337,-0.538 0.381,-0.528 0.417,-0.509C0.453,-0.489 0.481,-0.459 0.499,-0.419C0.518,-0.378 0.527,-0.326 0.527,-0.263C0.527,-0.2 0.518,-0.149 0.499,-0.108C0.481,-0.067 0.453,-0.037 0.417,-0.018C0.381,0.002 0.337,0.012 0.283,0.012ZM0.283,-0.059C0.318,-0.059 0.346,-0.066 0.369,-0.08C0.392,-0.093 0.41,-0.114 0.422,-0.143C0.433,-0.171 0.439,-0.208 0.439,-0.252L0.439,-0.274C0.439,-0.319 0.433,-0.355 0.422,-0.384C0.41,-0.412 0.392,-0.433 0.369,-0.446C0.346,-0.46 0.318,-0.467 0.283,-0.467C0.249,-0.467 0.22,-0.46 0.197,-0.446C0.174,-0.433 0.157,-0.412 0.145,-0.384C0.134,-0.355 0.128,-0.319 0.128,-0.274L0.128,-0.252C0.128,-0.208 0.134,-0.171 0.145,-0.143C0.157,-0.114 0.174,-0.093 0.197,-0.08C0.22,-0.066 0.249,-0.059 0.283,-0.059Z" style="fill-rule:nonzero;"/>
                    </g>
                    <g transform="matrix(16,0,0,16,466.629,895.316)">
                        <path d="M0.069,-0L0.069,-0.526L0.138,-0.526L0.145,-0.439L0.152,-0.439C0.157,-0.455 0.164,-0.471 0.174,-0.486C0.183,-0.501 0.196,-0.513 0.212,-0.523C0.228,-0.533 0.248,-0.538 0.271,-0.538C0.281,-0.538 0.29,-0.537 0.299,-0.536C0.307,-0.534 0.313,-0.532 0.317,-0.531L0.317,-0.452L0.284,-0.452C0.262,-0.452 0.242,-0.448 0.226,-0.44C0.209,-0.433 0.195,-0.421 0.185,-0.407C0.174,-0.393 0.166,-0.376 0.161,-0.357C0.156,-0.338 0.154,-0.317 0.154,-0.295L0.154,-0L0.069,-0Z" style="fill-rule:nonzero;"/>
                    </g>
                    <g transform="matrix(16,0,0,16,471.89,895.316)">
                        <path d="M0.069,-0L0.069,-0.723L0.154,-0.723L0.154,-0.268L0.38,-0.526L0.481,-0.526L0.301,-0.322L0.491,-0L0.393,-0L0.245,-0.259L0.154,-0.167L0.154,-0L0.069,-0Z" style="fill-rule:nonzero;"/>
                    </g>
                    <g transform="matrix(16,0,0,16,480.071,895.316)">
                    </g>
                </g>
            </g>
        </g>
    </g>
</svg>
