<?xml version="1.0" encoding="UTF-8" standalone="no"?>
<!DOCTYPE svg PUBLIC "-//W3C//DTD SVG 1.1//EN" "http://www.w3.org/Graphics/SVG/1.1/DTD/svg11.dtd">
<svg width="100%" height="100%" viewBox="0 0 200 200" version="1.1" xmlns="http://www.w3.org/2000/svg" xmlns:xlink="http://www.w3.org/1999/xlink" xml:space="preserve" xmlns:serif="http://www.serif.com/" style="fill-rule:evenodd;clip-rule:evenodd;stroke-linecap:round;stroke-linejoin:round;stroke-miterlimit:1.5;">
    <g transform="matrix(1,0,0,1,-269,-696)">
        <g id="standin-art" transform="matrix(1.17647,0,0,1.42857,-47.5045,-299.215)">
            <rect x="269.029" y="696.65" width="170" height="140" style="fill:none;"/>
            <clipPath id="_clip1">
                <rect x="269.029" y="696.65" width="170" height="140"/>
            </clipPath>
            <g clip-path="url(#_clip1)">
                <g transform="matrix(0.894737,0,0,0.712996,19.3972,197.806)">
                    <rect x="279" y="699.645" width="190" height="196.355" style="fill:rgb(195,195,195);"/>
                    <path d="M469,699.645L469,896L279,896L279,699.645L469,699.645ZM466.467,702.263L281.533,702.263C281.533,725.353 281.533,893.382 281.533,893.382C281.533,893.382 466.467,893.382 466.467,893.382L466.467,702.263Z" style="fill:rgb(41,41,41);"/>
                </g>
                <g transform="matrix(0.85,-2.11636e-16,-2.55004e-16,0.7,40.3788,209.45)">
                    <path d="M269,696L469,896" style="fill:none;stroke:rgb(41,41,41);stroke-width:0.89px;"/>
                </g>
                <g transform="matrix(-0.85,-2.11636e-16,2.55004e-16,0.7,667.679,209.45)">
                    <path d="M269,696L469,896" style="fill:none;stroke:rgb(41,41,41);stroke-width:0.89px;"/>
                </g>
            </g>
        </g>
    </g>
</svg>
