<?xml version="1.0" encoding="UTF-8" standalone="no"?>
<!DOCTYPE svg PUBLIC "-//W3C//DTD SVG 1.1//EN" "http://www.w3.org/Graphics/SVG/1.1/DTD/svg11.dtd">
<svg width="100%" height="100%" viewBox="0 0 501 501" version="1.1" xmlns="http://www.w3.org/2000/svg" xmlns:xlink="http://www.w3.org/1999/xlink" xml:space="preserve" xmlns:serif="http://www.serif.com/" style="fill-rule:evenodd;clip-rule:evenodd;stroke-linejoin:round;stroke-miterlimit:2;">
    <g transform="matrix(1,0,0,1,-175,-870)">
        <g id="code-frame" transform="matrix(0.78125,0,0,0.961538,50.6656,640.02)">
            <rect x="160" y="240" width="640" height="520" style="fill:rgb(175,253,250);fill-opacity:0.1;"/>
            <clipPath id="_clip1">
                <rect x="160" y="240" width="640" height="520"/>
            </clipPath>
            <g clip-path="url(#_clip1)">
                <g transform="matrix(3.2,0,0,1.86888,-352,-208.532)">
                    <path d="M168,244.452L160,240L360,240L357,244.174L168,244.452Z" style="fill-opacity:0.7;"/>
                </g>
                <g transform="matrix(3.2,0,0,2.6,-352,-384)">
                    <path d="M167.6,436.8L160,440L160,240L168,243.2L167.6,436.8Z" style="fill:url(#_Linear2);"/>
                </g>
                <g transform="matrix(1.28,0,0,1.04,-64.852,-665.621)">
                    <path d="M175.666,1370.79L195.666,1360.79L665.666,1360.79L675.666,1370.79L175.666,1370.79Z" style="fill:white;fill-opacity:0.31;"/>
                </g>
            </g>
        </g>
    </g>
    <defs>
        <linearGradient id="_Linear2" x1="0" y1="0" x2="1" y2="0" gradientUnits="userSpaceOnUse" gradientTransform="matrix(7,0,0,7,160,340)"><stop offset="0" style="stop-color:rgb(59,87,38);stop-opacity:0"/><stop offset="1" style="stop-color:black;stop-opacity:1"/></linearGradient>
    </defs>
</svg>
