<?xml version="1.0" encoding="UTF-8" standalone="no"?>
<!DOCTYPE svg PUBLIC "-//W3C//DTD SVG 1.1//EN" "http://www.w3.org/Graphics/SVG/1.1/DTD/svg11.dtd">
<svg width="100%" height="100%" viewBox="0 0 500 500" version="1.1" xmlns="http://www.w3.org/2000/svg" xmlns:xlink="http://www.w3.org/1999/xlink" xml:space="preserve" xmlns:serif="http://www.serif.com/" style="fill-rule:evenodd;clip-rule:evenodd;stroke-linejoin:round;stroke-miterlimit:2;">
    <g transform="matrix(1,0,0,1,-53,-800)">
        <g id="code-frame" transform="matrix(0.78125,0,0,0.961538,-72,569.231)">
            <rect x="160" y="240" width="640" height="520" style="fill:rgb(175,253,250);fill-opacity:0.1;"/>
            <clipPath id="_clip1">
                <rect x="160" y="240" width="640" height="520"/>
            </clipPath>
            <g clip-path="url(#_clip1)">
                <g transform="matrix(1.28,0,0,1.04,147.2,-592)">
                    <path d="M30,820L30,1280L10,1300L10,800L30,820Z" style="fill:rgb(5,13,24);fill-opacity:0.6;"/>
                </g>
                <g transform="matrix(1.28,0,0,1.04,761.6,-592)">
                    <path d="M30,800L30,1300L10,1280L10,820L30,800Z" style="fill:white;fill-opacity:0.05;"/>
                </g>
                <g transform="matrix(1.86047,0,0,1.04,130.233,-592)">
                    <path d="M360,800L346.24,820L29.76,820L16,800L360,800Z" style="fill-opacity:0.5;"/>
                </g>
                <g transform="matrix(1.86047,0,0,1.04,130.233,-92.8)">
                    <path d="M346.24,800L360,820L16,820L29.76,800L346.24,800Z" style="fill:white;fill-opacity:0.1;"/>
                </g>
            </g>
        </g>
    </g>
</svg>
